<?xml version="1.0" encoding="utf-8" standalone="no"?>
<!DOCTYPE svg PUBLIC "-//W3C//DTD SVG 1.1//EN"
  "http://www.w3.org/Graphics/SVG/1.1/DTD/svg11.dtd">
<svg xmlns:xlink="http://www.w3.org/1999/xlink" width="856.495625pt" height="711.034375pt" viewBox="0 0 856.495625 711.034375" xmlns="http://www.w3.org/2000/svg" version="1.1">
 <metadata>
  <rdf:RDF xmlns:dc="http://purl.org/dc/elements/1.1/" xmlns:cc="http://creativecommons.org/ns#" xmlns:rdf="http://www.w3.org/1999/02/22-rdf-syntax-ns#">
   <cc:Work>
    <dc:type rdf:resource="http://purl.org/dc/dcmitype/StillImage"/>
    <dc:date>2025-02-09T17:13:05.552024</dc:date>
    <dc:format>image/svg+xml</dc:format>
    <dc:creator>
     <cc:Agent>
      <dc:title>Matplotlib v3.10.0, https://matplotlib.org/</dc:title>
     </cc:Agent>
    </dc:creator>
   </cc:Work>
  </rdf:RDF>
 </metadata>
 <defs>
  <style type="text/css">*{stroke-linejoin: round; stroke-linecap: butt}</style>
 </defs>
 <g id="figure_1">
  <g id="patch_1">
   <path d="M 0 711.034375 
L 856.495625 711.034375 
L 856.495625 0 
L 0 0 
z
" style="fill: #ffffff"/>
  </g>
  <g id="axes_1">
   <g id="patch_2">
    <path d="M 46.965625 673.478125 
L 849.295625 673.478125 
L 849.295625 22.318125 
L 46.965625 22.318125 
z
" style="fill: #ffffff"/>
   </g>
   <g id="patch_3">
    <path d="M 72.038438 1121.359176 
L 72.038438 1121.359176 
L 72.038438 1121.359176 
L 72.038438 1121.359176 
z
" clip-path="url(#p695e48e317)" style="fill: #101070; stroke: #262626; stroke-linejoin: miter"/>
   </g>
   <g id="patch_4">
    <path d="M 72.038438 1121.359176 
L 72.038438 1121.359176 
L 72.038438 1121.359176 
L 72.038438 1121.359176 
z
" clip-path="url(#p695e48e317)" style="fill: #df9c20; stroke: #262626; stroke-linejoin: miter"/>
   </g>
   <g id="matplotlib.axis_1">
    <g id="xtick_1">
     <g id="line2d_1">
      <defs>
       <path id="m78b07abe2a" d="M 0 0 
L 0 3.5 
" style="stroke: #000000; stroke-width: 0.8"/>
      </defs>
      <g>
       <use xlink:href="#m78b07abe2a" x="72.038438" y="673.478125" style="stroke: #000000; stroke-width: 0.8"/>
      </g>
     </g>
     <g id="text_1">
      <!-- 1 -->
      <g transform="translate(68.857188 688.076562) scale(0.1 -0.1)">
       <defs>
        <path id="DejaVuSans-31" d="M 794 531 
L 1825 531 
L 1825 4091 
L 703 3866 
L 703 4441 
L 1819 4666 
L 2450 4666 
L 2450 531 
L 3481 531 
L 3481 0 
L 794 0 
L 794 531 
z
" transform="scale(0.015625)"/>
       </defs>
       <use xlink:href="#DejaVuSans-31"/>
      </g>
     </g>
    </g>
    <g id="xtick_2">
     <g id="line2d_2">
      <g>
       <use xlink:href="#m78b07abe2a" x="122.184063" y="673.478125" style="stroke: #000000; stroke-width: 0.8"/>
      </g>
     </g>
     <g id="text_2">
      <!-- 2 -->
      <g transform="translate(119.002813 688.076562) scale(0.1 -0.1)">
       <defs>
        <path id="DejaVuSans-32" d="M 1228 531 
L 3431 531 
L 3431 0 
L 469 0 
L 469 531 
Q 828 903 1448 1529 
Q 2069 2156 2228 2338 
Q 2531 2678 2651 2914 
Q 2772 3150 2772 3378 
Q 2772 3750 2511 3984 
Q 2250 4219 1831 4219 
Q 1534 4219 1204 4116 
Q 875 4013 500 3803 
L 500 4441 
Q 881 4594 1212 4672 
Q 1544 4750 1819 4750 
Q 2544 4750 2975 4387 
Q 3406 4025 3406 3419 
Q 3406 3131 3298 2873 
Q 3191 2616 2906 2266 
Q 2828 2175 2409 1742 
Q 1991 1309 1228 531 
z
" transform="scale(0.015625)"/>
       </defs>
       <use xlink:href="#DejaVuSans-32"/>
      </g>
     </g>
    </g>
    <g id="xtick_3">
     <g id="line2d_3">
      <g>
       <use xlink:href="#m78b07abe2a" x="172.329688" y="673.478125" style="stroke: #000000; stroke-width: 0.8"/>
      </g>
     </g>
     <g id="text_3">
      <!-- 3 -->
      <g transform="translate(169.148438 688.076562) scale(0.1 -0.1)">
       <defs>
        <path id="DejaVuSans-33" d="M 2597 2516 
Q 3050 2419 3304 2112 
Q 3559 1806 3559 1356 
Q 3559 666 3084 287 
Q 2609 -91 1734 -91 
Q 1441 -91 1130 -33 
Q 819 25 488 141 
L 488 750 
Q 750 597 1062 519 
Q 1375 441 1716 441 
Q 2309 441 2620 675 
Q 2931 909 2931 1356 
Q 2931 1769 2642 2001 
Q 2353 2234 1838 2234 
L 1294 2234 
L 1294 2753 
L 1863 2753 
Q 2328 2753 2575 2939 
Q 2822 3125 2822 3475 
Q 2822 3834 2567 4026 
Q 2313 4219 1838 4219 
Q 1578 4219 1281 4162 
Q 984 4106 628 3988 
L 628 4550 
Q 988 4650 1302 4700 
Q 1616 4750 1894 4750 
Q 2613 4750 3031 4423 
Q 3450 4097 3450 3541 
Q 3450 3153 3228 2886 
Q 3006 2619 2597 2516 
z
" transform="scale(0.015625)"/>
       </defs>
       <use xlink:href="#DejaVuSans-33"/>
      </g>
     </g>
    </g>
    <g id="xtick_4">
     <g id="line2d_4">
      <g>
       <use xlink:href="#m78b07abe2a" x="222.475313" y="673.478125" style="stroke: #000000; stroke-width: 0.8"/>
      </g>
     </g>
     <g id="text_4">
      <!-- 4 -->
      <g transform="translate(219.294063 688.076562) scale(0.1 -0.1)">
       <defs>
        <path id="DejaVuSans-34" d="M 2419 4116 
L 825 1625 
L 2419 1625 
L 2419 4116 
z
M 2253 4666 
L 3047 4666 
L 3047 1625 
L 3713 1625 
L 3713 1100 
L 3047 1100 
L 3047 0 
L 2419 0 
L 2419 1100 
L 313 1100 
L 313 1709 
L 2253 4666 
z
" transform="scale(0.015625)"/>
       </defs>
       <use xlink:href="#DejaVuSans-34"/>
      </g>
     </g>
    </g>
    <g id="xtick_5">
     <g id="line2d_5">
      <g>
       <use xlink:href="#m78b07abe2a" x="272.620938" y="673.478125" style="stroke: #000000; stroke-width: 0.8"/>
      </g>
     </g>
     <g id="text_5">
      <!-- 5 -->
      <g transform="translate(269.439688 688.076562) scale(0.1 -0.1)">
       <defs>
        <path id="DejaVuSans-35" d="M 691 4666 
L 3169 4666 
L 3169 4134 
L 1269 4134 
L 1269 2991 
Q 1406 3038 1543 3061 
Q 1681 3084 1819 3084 
Q 2600 3084 3056 2656 
Q 3513 2228 3513 1497 
Q 3513 744 3044 326 
Q 2575 -91 1722 -91 
Q 1428 -91 1123 -41 
Q 819 9 494 109 
L 494 744 
Q 775 591 1075 516 
Q 1375 441 1709 441 
Q 2250 441 2565 725 
Q 2881 1009 2881 1497 
Q 2881 1984 2565 2268 
Q 2250 2553 1709 2553 
Q 1456 2553 1204 2497 
Q 953 2441 691 2322 
L 691 4666 
z
" transform="scale(0.015625)"/>
       </defs>
       <use xlink:href="#DejaVuSans-35"/>
      </g>
     </g>
    </g>
    <g id="xtick_6">
     <g id="line2d_6">
      <g>
       <use xlink:href="#m78b07abe2a" x="322.766563" y="673.478125" style="stroke: #000000; stroke-width: 0.8"/>
      </g>
     </g>
     <g id="text_6">
      <!-- 6 -->
      <g transform="translate(319.585313 688.076562) scale(0.1 -0.1)">
       <defs>
        <path id="DejaVuSans-36" d="M 2113 2584 
Q 1688 2584 1439 2293 
Q 1191 2003 1191 1497 
Q 1191 994 1439 701 
Q 1688 409 2113 409 
Q 2538 409 2786 701 
Q 3034 994 3034 1497 
Q 3034 2003 2786 2293 
Q 2538 2584 2113 2584 
z
M 3366 4563 
L 3366 3988 
Q 3128 4100 2886 4159 
Q 2644 4219 2406 4219 
Q 1781 4219 1451 3797 
Q 1122 3375 1075 2522 
Q 1259 2794 1537 2939 
Q 1816 3084 2150 3084 
Q 2853 3084 3261 2657 
Q 3669 2231 3669 1497 
Q 3669 778 3244 343 
Q 2819 -91 2113 -91 
Q 1303 -91 875 529 
Q 447 1150 447 2328 
Q 447 3434 972 4092 
Q 1497 4750 2381 4750 
Q 2619 4750 2861 4703 
Q 3103 4656 3366 4563 
z
" transform="scale(0.015625)"/>
       </defs>
       <use xlink:href="#DejaVuSans-36"/>
      </g>
     </g>
    </g>
    <g id="xtick_7">
     <g id="line2d_7">
      <g>
       <use xlink:href="#m78b07abe2a" x="372.912188" y="673.478125" style="stroke: #000000; stroke-width: 0.8"/>
      </g>
     </g>
     <g id="text_7">
      <!-- 7 -->
      <g transform="translate(369.730938 688.076562) scale(0.1 -0.1)">
       <defs>
        <path id="DejaVuSans-37" d="M 525 4666 
L 3525 4666 
L 3525 4397 
L 1831 0 
L 1172 0 
L 2766 4134 
L 525 4134 
L 525 4666 
z
" transform="scale(0.015625)"/>
       </defs>
       <use xlink:href="#DejaVuSans-37"/>
      </g>
     </g>
    </g>
    <g id="xtick_8">
     <g id="line2d_8">
      <g>
       <use xlink:href="#m78b07abe2a" x="423.057813" y="673.478125" style="stroke: #000000; stroke-width: 0.8"/>
      </g>
     </g>
     <g id="text_8">
      <!-- 8 -->
      <g transform="translate(419.876563 688.076562) scale(0.1 -0.1)">
       <defs>
        <path id="DejaVuSans-38" d="M 2034 2216 
Q 1584 2216 1326 1975 
Q 1069 1734 1069 1313 
Q 1069 891 1326 650 
Q 1584 409 2034 409 
Q 2484 409 2743 651 
Q 3003 894 3003 1313 
Q 3003 1734 2745 1975 
Q 2488 2216 2034 2216 
z
M 1403 2484 
Q 997 2584 770 2862 
Q 544 3141 544 3541 
Q 544 4100 942 4425 
Q 1341 4750 2034 4750 
Q 2731 4750 3128 4425 
Q 3525 4100 3525 3541 
Q 3525 3141 3298 2862 
Q 3072 2584 2669 2484 
Q 3125 2378 3379 2068 
Q 3634 1759 3634 1313 
Q 3634 634 3220 271 
Q 2806 -91 2034 -91 
Q 1263 -91 848 271 
Q 434 634 434 1313 
Q 434 1759 690 2068 
Q 947 2378 1403 2484 
z
M 1172 3481 
Q 1172 3119 1398 2916 
Q 1625 2713 2034 2713 
Q 2441 2713 2670 2916 
Q 2900 3119 2900 3481 
Q 2900 3844 2670 4047 
Q 2441 4250 2034 4250 
Q 1625 4250 1398 4047 
Q 1172 3844 1172 3481 
z
" transform="scale(0.015625)"/>
       </defs>
       <use xlink:href="#DejaVuSans-38"/>
      </g>
     </g>
    </g>
    <g id="xtick_9">
     <g id="line2d_9">
      <g>
       <use xlink:href="#m78b07abe2a" x="473.203438" y="673.478125" style="stroke: #000000; stroke-width: 0.8"/>
      </g>
     </g>
     <g id="text_9">
      <!-- 9 -->
      <g transform="translate(470.022188 688.076562) scale(0.1 -0.1)">
       <defs>
        <path id="DejaVuSans-39" d="M 703 97 
L 703 672 
Q 941 559 1184 500 
Q 1428 441 1663 441 
Q 2288 441 2617 861 
Q 2947 1281 2994 2138 
Q 2813 1869 2534 1725 
Q 2256 1581 1919 1581 
Q 1219 1581 811 2004 
Q 403 2428 403 3163 
Q 403 3881 828 4315 
Q 1253 4750 1959 4750 
Q 2769 4750 3195 4129 
Q 3622 3509 3622 2328 
Q 3622 1225 3098 567 
Q 2575 -91 1691 -91 
Q 1453 -91 1209 -44 
Q 966 3 703 97 
z
M 1959 2075 
Q 2384 2075 2632 2365 
Q 2881 2656 2881 3163 
Q 2881 3666 2632 3958 
Q 2384 4250 1959 4250 
Q 1534 4250 1286 3958 
Q 1038 3666 1038 3163 
Q 1038 2656 1286 2365 
Q 1534 2075 1959 2075 
z
" transform="scale(0.015625)"/>
       </defs>
       <use xlink:href="#DejaVuSans-39"/>
      </g>
     </g>
    </g>
    <g id="xtick_10">
     <g id="line2d_10">
      <g>
       <use xlink:href="#m78b07abe2a" x="523.349063" y="673.478125" style="stroke: #000000; stroke-width: 0.8"/>
      </g>
     </g>
     <g id="text_10">
      <!-- 10 -->
      <g transform="translate(516.986563 688.076562) scale(0.1 -0.1)">
       <defs>
        <path id="DejaVuSans-30" d="M 2034 4250 
Q 1547 4250 1301 3770 
Q 1056 3291 1056 2328 
Q 1056 1369 1301 889 
Q 1547 409 2034 409 
Q 2525 409 2770 889 
Q 3016 1369 3016 2328 
Q 3016 3291 2770 3770 
Q 2525 4250 2034 4250 
z
M 2034 4750 
Q 2819 4750 3233 4129 
Q 3647 3509 3647 2328 
Q 3647 1150 3233 529 
Q 2819 -91 2034 -91 
Q 1250 -91 836 529 
Q 422 1150 422 2328 
Q 422 3509 836 4129 
Q 1250 4750 2034 4750 
z
" transform="scale(0.015625)"/>
       </defs>
       <use xlink:href="#DejaVuSans-31"/>
       <use xlink:href="#DejaVuSans-30" transform="translate(63.623047 0)"/>
      </g>
     </g>
    </g>
    <g id="xtick_11">
     <g id="line2d_11">
      <g>
       <use xlink:href="#m78b07abe2a" x="573.494688" y="673.478125" style="stroke: #000000; stroke-width: 0.8"/>
      </g>
     </g>
     <g id="text_11">
      <!-- 11 -->
      <g transform="translate(567.132188 688.076562) scale(0.1 -0.1)">
       <use xlink:href="#DejaVuSans-31"/>
       <use xlink:href="#DejaVuSans-31" transform="translate(63.623047 0)"/>
      </g>
     </g>
    </g>
    <g id="xtick_12">
     <g id="line2d_12">
      <g>
       <use xlink:href="#m78b07abe2a" x="623.640313" y="673.478125" style="stroke: #000000; stroke-width: 0.8"/>
      </g>
     </g>
     <g id="text_12">
      <!-- 12 -->
      <g transform="translate(617.277813 688.076562) scale(0.1 -0.1)">
       <use xlink:href="#DejaVuSans-31"/>
       <use xlink:href="#DejaVuSans-32" transform="translate(63.623047 0)"/>
      </g>
     </g>
    </g>
    <g id="xtick_13">
     <g id="line2d_13">
      <g>
       <use xlink:href="#m78b07abe2a" x="673.785938" y="673.478125" style="stroke: #000000; stroke-width: 0.8"/>
      </g>
     </g>
     <g id="text_13">
      <!-- 13 -->
      <g transform="translate(667.423438 688.076562) scale(0.1 -0.1)">
       <use xlink:href="#DejaVuSans-31"/>
       <use xlink:href="#DejaVuSans-33" transform="translate(63.623047 0)"/>
      </g>
     </g>
    </g>
    <g id="xtick_14">
     <g id="line2d_14">
      <g>
       <use xlink:href="#m78b07abe2a" x="723.931563" y="673.478125" style="stroke: #000000; stroke-width: 0.8"/>
      </g>
     </g>
     <g id="text_14">
      <!-- 14 -->
      <g transform="translate(717.569063 688.076562) scale(0.1 -0.1)">
       <use xlink:href="#DejaVuSans-31"/>
       <use xlink:href="#DejaVuSans-34" transform="translate(63.623047 0)"/>
      </g>
     </g>
    </g>
    <g id="xtick_15">
     <g id="line2d_15">
      <g>
       <use xlink:href="#m78b07abe2a" x="774.077188" y="673.478125" style="stroke: #000000; stroke-width: 0.8"/>
      </g>
     </g>
     <g id="text_15">
      <!-- 15 -->
      <g transform="translate(767.714688 688.076562) scale(0.1 -0.1)">
       <use xlink:href="#DejaVuSans-31"/>
       <use xlink:href="#DejaVuSans-35" transform="translate(63.623047 0)"/>
      </g>
     </g>
    </g>
    <g id="xtick_16">
     <g id="line2d_16">
      <g>
       <use xlink:href="#m78b07abe2a" x="824.222813" y="673.478125" style="stroke: #000000; stroke-width: 0.8"/>
      </g>
     </g>
     <g id="text_16">
      <!-- 16 -->
      <g transform="translate(817.860313 688.076562) scale(0.1 -0.1)">
       <use xlink:href="#DejaVuSans-31"/>
       <use xlink:href="#DejaVuSans-36" transform="translate(63.623047 0)"/>
      </g>
     </g>
    </g>
    <g id="text_17">
     <!-- Extraction Method -->
     <g transform="translate(402.263438 701.754687) scale(0.1 -0.1)">
      <defs>
       <path id="DejaVuSans-45" d="M 628 4666 
L 3578 4666 
L 3578 4134 
L 1259 4134 
L 1259 2753 
L 3481 2753 
L 3481 2222 
L 1259 2222 
L 1259 531 
L 3634 531 
L 3634 0 
L 628 0 
L 628 4666 
z
" transform="scale(0.015625)"/>
       <path id="DejaVuSans-78" d="M 3513 3500 
L 2247 1797 
L 3578 0 
L 2900 0 
L 1881 1375 
L 863 0 
L 184 0 
L 1544 1831 
L 300 3500 
L 978 3500 
L 1906 2253 
L 2834 3500 
L 3513 3500 
z
" transform="scale(0.015625)"/>
       <path id="DejaVuSans-74" d="M 1172 4494 
L 1172 3500 
L 2356 3500 
L 2356 3053 
L 1172 3053 
L 1172 1153 
Q 1172 725 1289 603 
Q 1406 481 1766 481 
L 2356 481 
L 2356 0 
L 1766 0 
Q 1100 0 847 248 
Q 594 497 594 1153 
L 594 3053 
L 172 3053 
L 172 3500 
L 594 3500 
L 594 4494 
L 1172 4494 
z
" transform="scale(0.015625)"/>
       <path id="DejaVuSans-72" d="M 2631 2963 
Q 2534 3019 2420 3045 
Q 2306 3072 2169 3072 
Q 1681 3072 1420 2755 
Q 1159 2438 1159 1844 
L 1159 0 
L 581 0 
L 581 3500 
L 1159 3500 
L 1159 2956 
Q 1341 3275 1631 3429 
Q 1922 3584 2338 3584 
Q 2397 3584 2469 3576 
Q 2541 3569 2628 3553 
L 2631 2963 
z
" transform="scale(0.015625)"/>
       <path id="DejaVuSans-61" d="M 2194 1759 
Q 1497 1759 1228 1600 
Q 959 1441 959 1056 
Q 959 750 1161 570 
Q 1363 391 1709 391 
Q 2188 391 2477 730 
Q 2766 1069 2766 1631 
L 2766 1759 
L 2194 1759 
z
M 3341 1997 
L 3341 0 
L 2766 0 
L 2766 531 
Q 2569 213 2275 61 
Q 1981 -91 1556 -91 
Q 1019 -91 701 211 
Q 384 513 384 1019 
Q 384 1609 779 1909 
Q 1175 2209 1959 2209 
L 2766 2209 
L 2766 2266 
Q 2766 2663 2505 2880 
Q 2244 3097 1772 3097 
Q 1472 3097 1187 3025 
Q 903 2953 641 2809 
L 641 3341 
Q 956 3463 1253 3523 
Q 1550 3584 1831 3584 
Q 2591 3584 2966 3190 
Q 3341 2797 3341 1997 
z
" transform="scale(0.015625)"/>
       <path id="DejaVuSans-63" d="M 3122 3366 
L 3122 2828 
Q 2878 2963 2633 3030 
Q 2388 3097 2138 3097 
Q 1578 3097 1268 2742 
Q 959 2388 959 1747 
Q 959 1106 1268 751 
Q 1578 397 2138 397 
Q 2388 397 2633 464 
Q 2878 531 3122 666 
L 3122 134 
Q 2881 22 2623 -34 
Q 2366 -91 2075 -91 
Q 1284 -91 818 406 
Q 353 903 353 1747 
Q 353 2603 823 3093 
Q 1294 3584 2113 3584 
Q 2378 3584 2631 3529 
Q 2884 3475 3122 3366 
z
" transform="scale(0.015625)"/>
       <path id="DejaVuSans-69" d="M 603 3500 
L 1178 3500 
L 1178 0 
L 603 0 
L 603 3500 
z
M 603 4863 
L 1178 4863 
L 1178 4134 
L 603 4134 
L 603 4863 
z
" transform="scale(0.015625)"/>
       <path id="DejaVuSans-6f" d="M 1959 3097 
Q 1497 3097 1228 2736 
Q 959 2375 959 1747 
Q 959 1119 1226 758 
Q 1494 397 1959 397 
Q 2419 397 2687 759 
Q 2956 1122 2956 1747 
Q 2956 2369 2687 2733 
Q 2419 3097 1959 3097 
z
M 1959 3584 
Q 2709 3584 3137 3096 
Q 3566 2609 3566 1747 
Q 3566 888 3137 398 
Q 2709 -91 1959 -91 
Q 1206 -91 779 398 
Q 353 888 353 1747 
Q 353 2609 779 3096 
Q 1206 3584 1959 3584 
z
" transform="scale(0.015625)"/>
       <path id="DejaVuSans-6e" d="M 3513 2113 
L 3513 0 
L 2938 0 
L 2938 2094 
Q 2938 2591 2744 2837 
Q 2550 3084 2163 3084 
Q 1697 3084 1428 2787 
Q 1159 2491 1159 1978 
L 1159 0 
L 581 0 
L 581 3500 
L 1159 3500 
L 1159 2956 
Q 1366 3272 1645 3428 
Q 1925 3584 2291 3584 
Q 2894 3584 3203 3211 
Q 3513 2838 3513 2113 
z
" transform="scale(0.015625)"/>
       <path id="DejaVuSans-20" transform="scale(0.015625)"/>
       <path id="DejaVuSans-4d" d="M 628 4666 
L 1569 4666 
L 2759 1491 
L 3956 4666 
L 4897 4666 
L 4897 0 
L 4281 0 
L 4281 4097 
L 3078 897 
L 2444 897 
L 1241 4097 
L 1241 0 
L 628 0 
L 628 4666 
z
" transform="scale(0.015625)"/>
       <path id="DejaVuSans-65" d="M 3597 1894 
L 3597 1613 
L 953 1613 
Q 991 1019 1311 708 
Q 1631 397 2203 397 
Q 2534 397 2845 478 
Q 3156 559 3463 722 
L 3463 178 
Q 3153 47 2828 -22 
Q 2503 -91 2169 -91 
Q 1331 -91 842 396 
Q 353 884 353 1716 
Q 353 2575 817 3079 
Q 1281 3584 2069 3584 
Q 2775 3584 3186 3129 
Q 3597 2675 3597 1894 
z
M 3022 2063 
Q 3016 2534 2758 2815 
Q 2500 3097 2075 3097 
Q 1594 3097 1305 2825 
Q 1016 2553 972 2059 
L 3022 2063 
z
" transform="scale(0.015625)"/>
       <path id="DejaVuSans-68" d="M 3513 2113 
L 3513 0 
L 2938 0 
L 2938 2094 
Q 2938 2591 2744 2837 
Q 2550 3084 2163 3084 
Q 1697 3084 1428 2787 
Q 1159 2491 1159 1978 
L 1159 0 
L 581 0 
L 581 4863 
L 1159 4863 
L 1159 2956 
Q 1366 3272 1645 3428 
Q 1925 3584 2291 3584 
Q 2894 3584 3203 3211 
Q 3513 2838 3513 2113 
z
" transform="scale(0.015625)"/>
       <path id="DejaVuSans-64" d="M 2906 2969 
L 2906 4863 
L 3481 4863 
L 3481 0 
L 2906 0 
L 2906 525 
Q 2725 213 2448 61 
Q 2172 -91 1784 -91 
Q 1150 -91 751 415 
Q 353 922 353 1747 
Q 353 2572 751 3078 
Q 1150 3584 1784 3584 
Q 2172 3584 2448 3432 
Q 2725 3281 2906 2969 
z
M 947 1747 
Q 947 1113 1208 752 
Q 1469 391 1925 391 
Q 2381 391 2643 752 
Q 2906 1113 2906 1747 
Q 2906 2381 2643 2742 
Q 2381 3103 1925 3103 
Q 1469 3103 1208 2742 
Q 947 2381 947 1747 
z
" transform="scale(0.015625)"/>
      </defs>
      <use xlink:href="#DejaVuSans-45"/>
      <use xlink:href="#DejaVuSans-78" transform="translate(63.183594 0)"/>
      <use xlink:href="#DejaVuSans-74" transform="translate(122.363281 0)"/>
      <use xlink:href="#DejaVuSans-72" transform="translate(161.572266 0)"/>
      <use xlink:href="#DejaVuSans-61" transform="translate(202.685547 0)"/>
      <use xlink:href="#DejaVuSans-63" transform="translate(263.964844 0)"/>
      <use xlink:href="#DejaVuSans-74" transform="translate(318.945312 0)"/>
      <use xlink:href="#DejaVuSans-69" transform="translate(358.154297 0)"/>
      <use xlink:href="#DejaVuSans-6f" transform="translate(385.9375 0)"/>
      <use xlink:href="#DejaVuSans-6e" transform="translate(447.119141 0)"/>
      <use xlink:href="#DejaVuSans-20" transform="translate(510.498047 0)"/>
      <use xlink:href="#DejaVuSans-4d" transform="translate(542.285156 0)"/>
      <use xlink:href="#DejaVuSans-65" transform="translate(628.564453 0)"/>
      <use xlink:href="#DejaVuSans-74" transform="translate(690.087891 0)"/>
      <use xlink:href="#DejaVuSans-68" transform="translate(729.296875 0)"/>
      <use xlink:href="#DejaVuSans-6f" transform="translate(792.675781 0)"/>
      <use xlink:href="#DejaVuSans-64" transform="translate(853.857422 0)"/>
     </g>
    </g>
   </g>
   <g id="matplotlib.axis_2">
    <g id="ytick_1">
     <g id="line2d_17">
      <path d="M 46.965625 660.471886 
L 849.295625 660.471886 
" clip-path="url(#p695e48e317)" style="fill: none; stroke-dasharray: 2.96,1.28; stroke-dashoffset: 0; stroke: #b0b0b0; stroke-opacity: 0.7; stroke-width: 0.8"/>
     </g>
     <g id="line2d_18">
      <defs>
       <path id="m865165551a" d="M 0 0 
L -3.5 0 
" style="stroke: #000000; stroke-width: 0.8"/>
      </defs>
      <g>
       <use xlink:href="#m865165551a" x="46.965625" y="660.471886" style="stroke: #000000; stroke-width: 0.8"/>
      </g>
     </g>
     <g id="text_18">
      <!-- 400 -->
      <g transform="translate(20.878125 664.271104) scale(0.1 -0.1)">
       <use xlink:href="#DejaVuSans-34"/>
       <use xlink:href="#DejaVuSans-30" transform="translate(63.623047 0)"/>
       <use xlink:href="#DejaVuSans-30" transform="translate(127.246094 0)"/>
      </g>
     </g>
    </g>
    <g id="ytick_2">
     <g id="line2d_19">
      <path d="M 46.965625 545.250063 
L 849.295625 545.250063 
" clip-path="url(#p695e48e317)" style="fill: none; stroke-dasharray: 2.96,1.28; stroke-dashoffset: 0; stroke: #b0b0b0; stroke-opacity: 0.7; stroke-width: 0.8"/>
     </g>
     <g id="line2d_20">
      <g>
       <use xlink:href="#m865165551a" x="46.965625" y="545.250063" style="stroke: #000000; stroke-width: 0.8"/>
      </g>
     </g>
     <g id="text_19">
      <!-- 500 -->
      <g transform="translate(20.878125 549.049282) scale(0.1 -0.1)">
       <use xlink:href="#DejaVuSans-35"/>
       <use xlink:href="#DejaVuSans-30" transform="translate(63.623047 0)"/>
       <use xlink:href="#DejaVuSans-30" transform="translate(127.246094 0)"/>
      </g>
     </g>
    </g>
    <g id="ytick_3">
     <g id="line2d_21">
      <path d="M 46.965625 430.02824 
L 849.295625 430.02824 
" clip-path="url(#p695e48e317)" style="fill: none; stroke-dasharray: 2.96,1.28; stroke-dashoffset: 0; stroke: #b0b0b0; stroke-opacity: 0.7; stroke-width: 0.8"/>
     </g>
     <g id="line2d_22">
      <g>
       <use xlink:href="#m865165551a" x="46.965625" y="430.02824" style="stroke: #000000; stroke-width: 0.8"/>
      </g>
     </g>
     <g id="text_20">
      <!-- 600 -->
      <g transform="translate(20.878125 433.827459) scale(0.1 -0.1)">
       <use xlink:href="#DejaVuSans-36"/>
       <use xlink:href="#DejaVuSans-30" transform="translate(63.623047 0)"/>
       <use xlink:href="#DejaVuSans-30" transform="translate(127.246094 0)"/>
      </g>
     </g>
    </g>
    <g id="ytick_4">
     <g id="line2d_23">
      <path d="M 46.965625 314.806418 
L 849.295625 314.806418 
" clip-path="url(#p695e48e317)" style="fill: none; stroke-dasharray: 2.96,1.28; stroke-dashoffset: 0; stroke: #b0b0b0; stroke-opacity: 0.7; stroke-width: 0.8"/>
     </g>
     <g id="line2d_24">
      <g>
       <use xlink:href="#m865165551a" x="46.965625" y="314.806418" style="stroke: #000000; stroke-width: 0.8"/>
      </g>
     </g>
     <g id="text_21">
      <!-- 700 -->
      <g transform="translate(20.878125 318.605636) scale(0.1 -0.1)">
       <use xlink:href="#DejaVuSans-37"/>
       <use xlink:href="#DejaVuSans-30" transform="translate(63.623047 0)"/>
       <use xlink:href="#DejaVuSans-30" transform="translate(127.246094 0)"/>
      </g>
     </g>
    </g>
    <g id="ytick_5">
     <g id="line2d_25">
      <path d="M 46.965625 199.584595 
L 849.295625 199.584595 
" clip-path="url(#p695e48e317)" style="fill: none; stroke-dasharray: 2.96,1.28; stroke-dashoffset: 0; stroke: #b0b0b0; stroke-opacity: 0.7; stroke-width: 0.8"/>
     </g>
     <g id="line2d_26">
      <g>
       <use xlink:href="#m865165551a" x="46.965625" y="199.584595" style="stroke: #000000; stroke-width: 0.8"/>
      </g>
     </g>
     <g id="text_22">
      <!-- 800 -->
      <g transform="translate(20.878125 203.383814) scale(0.1 -0.1)">
       <use xlink:href="#DejaVuSans-38"/>
       <use xlink:href="#DejaVuSans-30" transform="translate(63.623047 0)"/>
       <use xlink:href="#DejaVuSans-30" transform="translate(127.246094 0)"/>
      </g>
     </g>
    </g>
    <g id="ytick_6">
     <g id="line2d_27">
      <path d="M 46.965625 84.362772 
L 849.295625 84.362772 
" clip-path="url(#p695e48e317)" style="fill: none; stroke-dasharray: 2.96,1.28; stroke-dashoffset: 0; stroke: #b0b0b0; stroke-opacity: 0.7; stroke-width: 0.8"/>
     </g>
     <g id="line2d_28">
      <g>
       <use xlink:href="#m865165551a" x="46.965625" y="84.362772" style="stroke: #000000; stroke-width: 0.8"/>
      </g>
     </g>
     <g id="text_23">
      <!-- 900 -->
      <g transform="translate(20.878125 88.161991) scale(0.1 -0.1)">
       <use xlink:href="#DejaVuSans-39"/>
       <use xlink:href="#DejaVuSans-30" transform="translate(63.623047 0)"/>
       <use xlink:href="#DejaVuSans-30" transform="translate(127.246094 0)"/>
      </g>
     </g>
    </g>
    <g id="text_24">
     <!-- Carbohydrates/mg -->
     <g transform="translate(14.798438 394.534844) rotate(-90) scale(0.1 -0.1)">
      <defs>
       <path id="DejaVuSans-43" d="M 4122 4306 
L 4122 3641 
Q 3803 3938 3442 4084 
Q 3081 4231 2675 4231 
Q 1875 4231 1450 3742 
Q 1025 3253 1025 2328 
Q 1025 1406 1450 917 
Q 1875 428 2675 428 
Q 3081 428 3442 575 
Q 3803 722 4122 1019 
L 4122 359 
Q 3791 134 3420 21 
Q 3050 -91 2638 -91 
Q 1578 -91 968 557 
Q 359 1206 359 2328 
Q 359 3453 968 4101 
Q 1578 4750 2638 4750 
Q 3056 4750 3426 4639 
Q 3797 4528 4122 4306 
z
" transform="scale(0.015625)"/>
       <path id="DejaVuSans-62" d="M 3116 1747 
Q 3116 2381 2855 2742 
Q 2594 3103 2138 3103 
Q 1681 3103 1420 2742 
Q 1159 2381 1159 1747 
Q 1159 1113 1420 752 
Q 1681 391 2138 391 
Q 2594 391 2855 752 
Q 3116 1113 3116 1747 
z
M 1159 2969 
Q 1341 3281 1617 3432 
Q 1894 3584 2278 3584 
Q 2916 3584 3314 3078 
Q 3713 2572 3713 1747 
Q 3713 922 3314 415 
Q 2916 -91 2278 -91 
Q 1894 -91 1617 61 
Q 1341 213 1159 525 
L 1159 0 
L 581 0 
L 581 4863 
L 1159 4863 
L 1159 2969 
z
" transform="scale(0.015625)"/>
       <path id="DejaVuSans-79" d="M 2059 -325 
Q 1816 -950 1584 -1140 
Q 1353 -1331 966 -1331 
L 506 -1331 
L 506 -850 
L 844 -850 
Q 1081 -850 1212 -737 
Q 1344 -625 1503 -206 
L 1606 56 
L 191 3500 
L 800 3500 
L 1894 763 
L 2988 3500 
L 3597 3500 
L 2059 -325 
z
" transform="scale(0.015625)"/>
       <path id="DejaVuSans-73" d="M 2834 3397 
L 2834 2853 
Q 2591 2978 2328 3040 
Q 2066 3103 1784 3103 
Q 1356 3103 1142 2972 
Q 928 2841 928 2578 
Q 928 2378 1081 2264 
Q 1234 2150 1697 2047 
L 1894 2003 
Q 2506 1872 2764 1633 
Q 3022 1394 3022 966 
Q 3022 478 2636 193 
Q 2250 -91 1575 -91 
Q 1294 -91 989 -36 
Q 684 19 347 128 
L 347 722 
Q 666 556 975 473 
Q 1284 391 1588 391 
Q 1994 391 2212 530 
Q 2431 669 2431 922 
Q 2431 1156 2273 1281 
Q 2116 1406 1581 1522 
L 1381 1569 
Q 847 1681 609 1914 
Q 372 2147 372 2553 
Q 372 3047 722 3315 
Q 1072 3584 1716 3584 
Q 2034 3584 2315 3537 
Q 2597 3491 2834 3397 
z
" transform="scale(0.015625)"/>
       <path id="DejaVuSans-2f" d="M 1625 4666 
L 2156 4666 
L 531 -594 
L 0 -594 
L 1625 4666 
z
" transform="scale(0.015625)"/>
       <path id="DejaVuSans-6d" d="M 3328 2828 
Q 3544 3216 3844 3400 
Q 4144 3584 4550 3584 
Q 5097 3584 5394 3201 
Q 5691 2819 5691 2113 
L 5691 0 
L 5113 0 
L 5113 2094 
Q 5113 2597 4934 2840 
Q 4756 3084 4391 3084 
Q 3944 3084 3684 2787 
Q 3425 2491 3425 1978 
L 3425 0 
L 2847 0 
L 2847 2094 
Q 2847 2600 2669 2842 
Q 2491 3084 2119 3084 
Q 1678 3084 1418 2786 
Q 1159 2488 1159 1978 
L 1159 0 
L 581 0 
L 581 3500 
L 1159 3500 
L 1159 2956 
Q 1356 3278 1631 3431 
Q 1906 3584 2284 3584 
Q 2666 3584 2933 3390 
Q 3200 3197 3328 2828 
z
" transform="scale(0.015625)"/>
       <path id="DejaVuSans-67" d="M 2906 1791 
Q 2906 2416 2648 2759 
Q 2391 3103 1925 3103 
Q 1463 3103 1205 2759 
Q 947 2416 947 1791 
Q 947 1169 1205 825 
Q 1463 481 1925 481 
Q 2391 481 2648 825 
Q 2906 1169 2906 1791 
z
M 3481 434 
Q 3481 -459 3084 -895 
Q 2688 -1331 1869 -1331 
Q 1566 -1331 1297 -1286 
Q 1028 -1241 775 -1147 
L 775 -588 
Q 1028 -725 1275 -790 
Q 1522 -856 1778 -856 
Q 2344 -856 2625 -561 
Q 2906 -266 2906 331 
L 2906 616 
Q 2728 306 2450 153 
Q 2172 0 1784 0 
Q 1141 0 747 490 
Q 353 981 353 1791 
Q 353 2603 747 3093 
Q 1141 3584 1784 3584 
Q 2172 3584 2450 3431 
Q 2728 3278 2906 2969 
L 2906 3500 
L 3481 3500 
L 3481 434 
z
" transform="scale(0.015625)"/>
      </defs>
      <use xlink:href="#DejaVuSans-43"/>
      <use xlink:href="#DejaVuSans-61" transform="translate(69.824219 0)"/>
      <use xlink:href="#DejaVuSans-72" transform="translate(131.103516 0)"/>
      <use xlink:href="#DejaVuSans-62" transform="translate(172.216797 0)"/>
      <use xlink:href="#DejaVuSans-6f" transform="translate(235.693359 0)"/>
      <use xlink:href="#DejaVuSans-68" transform="translate(296.875 0)"/>
      <use xlink:href="#DejaVuSans-79" transform="translate(360.253906 0)"/>
      <use xlink:href="#DejaVuSans-64" transform="translate(419.433594 0)"/>
      <use xlink:href="#DejaVuSans-72" transform="translate(482.910156 0)"/>
      <use xlink:href="#DejaVuSans-61" transform="translate(524.023438 0)"/>
      <use xlink:href="#DejaVuSans-74" transform="translate(585.302734 0)"/>
      <use xlink:href="#DejaVuSans-65" transform="translate(624.511719 0)"/>
      <use xlink:href="#DejaVuSans-73" transform="translate(686.035156 0)"/>
      <use xlink:href="#DejaVuSans-2f" transform="translate(738.134766 0)"/>
      <use xlink:href="#DejaVuSans-6d" transform="translate(771.826172 0)"/>
      <use xlink:href="#DejaVuSans-67" transform="translate(869.238281 0)"/>
     </g>
    </g>
   </g>
   <g id="patch_5">
    <path d="M 64.516594 335.085458 
L 72.038438 335.085458 
L 72.038438 318.954403 
L 64.516594 318.954403 
L 64.516594 335.085458 
z
" clip-path="url(#p695e48e317)" style="fill: #101070; stroke: #262626; stroke-linejoin: miter"/>
   </g>
   <g id="line2d_29">
    <path d="M 68.277516 335.085458 
L 68.277516 337.389895 
" clip-path="url(#p695e48e317)" style="fill: none; stroke: #262626"/>
   </g>
   <g id="line2d_30">
    <path d="M 68.277516 318.954403 
L 68.277516 318.954403 
" clip-path="url(#p695e48e317)" style="fill: none; stroke: #262626"/>
   </g>
   <g id="line2d_31">
    <path d="M 66.397055 337.389895 
L 70.157977 337.389895 
" clip-path="url(#p695e48e317)" style="fill: none; stroke: #262626; stroke-linecap: square"/>
   </g>
   <g id="line2d_32">
    <path d="M 66.397055 318.954403 
L 70.157977 318.954403 
" clip-path="url(#p695e48e317)" style="fill: none; stroke: #262626; stroke-linecap: square"/>
   </g>
   <g id="patch_6">
    <path d="M 114.662219 182.808297 
L 122.184063 182.808297 
L 122.184063 139.20836 
L 114.662219 139.20836 
L 114.662219 182.808297 
z
" clip-path="url(#p695e48e317)" style="fill: #101070; stroke: #262626; stroke-linejoin: miter"/>
   </g>
   <g id="line2d_33">
    <path d="M 118.423141 182.808297 
L 118.423141 199.123708 
" clip-path="url(#p695e48e317)" style="fill: none; stroke: #262626"/>
   </g>
   <g id="line2d_34">
    <path d="M 118.423141 139.20836 
L 118.423141 129.990614 
" clip-path="url(#p695e48e317)" style="fill: none; stroke: #262626"/>
   </g>
   <g id="line2d_35">
    <path d="M 116.54268 199.123708 
L 120.303602 199.123708 
" clip-path="url(#p695e48e317)" style="fill: none; stroke: #262626; stroke-linecap: square"/>
   </g>
   <g id="line2d_36">
    <path d="M 116.54268 129.990614 
L 120.303602 129.990614 
" clip-path="url(#p695e48e317)" style="fill: none; stroke: #262626; stroke-linecap: square"/>
   </g>
   <g id="patch_7">
    <path d="M 164.807844 280.055516 
L 172.329688 280.055516 
L 172.329688 203.73258 
L 164.807844 203.73258 
L 164.807844 280.055516 
z
" clip-path="url(#p695e48e317)" style="fill: #101070; stroke: #262626; stroke-linejoin: miter"/>
   </g>
   <g id="line2d_37">
    <path d="M 168.568766 280.055516 
L 168.568766 291.116811 
" clip-path="url(#p695e48e317)" style="fill: none; stroke: #262626"/>
   </g>
   <g id="line2d_38">
    <path d="M 168.568766 203.73258 
L 168.568766 192.210398 
" clip-path="url(#p695e48e317)" style="fill: none; stroke: #262626"/>
   </g>
   <g id="line2d_39">
    <path d="M 166.688305 291.116811 
L 170.449227 291.116811 
" clip-path="url(#p695e48e317)" style="fill: none; stroke: #262626; stroke-linecap: square"/>
   </g>
   <g id="line2d_40">
    <path d="M 166.688305 192.210398 
L 170.449227 192.210398 
" clip-path="url(#p695e48e317)" style="fill: none; stroke: #262626; stroke-linecap: square"/>
   </g>
   <g id="patch_8">
    <path d="M 214.953469 257.472039 
L 222.475313 257.472039 
L 222.475313 210.461535 
L 214.953469 210.461535 
L 214.953469 257.472039 
z
" clip-path="url(#p695e48e317)" style="fill: #101070; stroke: #262626; stroke-linejoin: miter"/>
   </g>
   <g id="line2d_41">
    <path d="M 218.714391 257.472039 
L 218.714391 265.952365 
" clip-path="url(#p695e48e317)" style="fill: none; stroke: #262626"/>
   </g>
   <g id="line2d_42">
    <path d="M 218.714391 210.461535 
L 218.714391 198.017578 
" clip-path="url(#p695e48e317)" style="fill: none; stroke: #262626"/>
   </g>
   <g id="line2d_43">
    <path d="M 216.83393 265.952365 
L 220.594852 265.952365 
" clip-path="url(#p695e48e317)" style="fill: none; stroke: #262626; stroke-linecap: square"/>
   </g>
   <g id="line2d_44">
    <path d="M 216.83393 198.017578 
L 220.594852 198.017578 
" clip-path="url(#p695e48e317)" style="fill: none; stroke: #262626; stroke-linecap: square"/>
   </g>
   <g id="patch_9">
    <path d="M 265.099094 408.827425 
L 272.620938 408.827425 
L 272.620938 365.319665 
L 265.099094 365.319665 
L 265.099094 408.827425 
z
" clip-path="url(#p695e48e317)" style="fill: #101070; stroke: #262626; stroke-linejoin: miter"/>
   </g>
   <g id="line2d_45">
    <path d="M 268.860016 408.827425 
L 268.860016 418.045171 
" clip-path="url(#p695e48e317)" style="fill: none; stroke: #262626"/>
   </g>
   <g id="line2d_46">
    <path d="M 268.860016 365.319665 
L 268.860016 358.406355 
" clip-path="url(#p695e48e317)" style="fill: none; stroke: #262626"/>
   </g>
   <g id="line2d_47">
    <path d="M 266.979555 418.045171 
L 270.740477 418.045171 
" clip-path="url(#p695e48e317)" style="fill: none; stroke: #262626; stroke-linecap: square"/>
   </g>
   <g id="line2d_48">
    <path d="M 266.979555 358.406355 
L 270.740477 358.406355 
" clip-path="url(#p695e48e317)" style="fill: none; stroke: #262626; stroke-linecap: square"/>
   </g>
   <g id="patch_10">
    <path d="M 315.244719 157.459496 
L 322.766563 157.459496 
L 322.766563 122.89295 
L 315.244719 122.89295 
L 315.244719 157.459496 
z
" clip-path="url(#p695e48e317)" style="fill: #101070; stroke: #262626; stroke-linejoin: miter"/>
   </g>
   <g id="line2d_49">
    <path d="M 319.005641 157.459496 
L 319.005641 185.112734 
" clip-path="url(#p695e48e317)" style="fill: none; stroke: #262626"/>
   </g>
   <g id="line2d_50">
    <path d="M 319.005641 122.89295 
L 319.005641 111.555122 
" clip-path="url(#p695e48e317)" style="fill: none; stroke: #262626"/>
   </g>
   <g id="line2d_51">
    <path d="M 317.12518 185.112734 
L 320.886102 185.112734 
" clip-path="url(#p695e48e317)" style="fill: none; stroke: #262626; stroke-linecap: square"/>
   </g>
   <g id="line2d_52">
    <path d="M 317.12518 111.555122 
L 320.886102 111.555122 
" clip-path="url(#p695e48e317)" style="fill: none; stroke: #262626; stroke-linecap: square"/>
   </g>
   <g id="patch_11">
    <path d="M 365.390344 318.954403 
L 372.912188 318.954403 
L 372.912188 264.846235 
L 365.390344 264.846235 
L 365.390344 318.954403 
z
" clip-path="url(#p695e48e317)" style="fill: #101070; stroke: #262626; stroke-linejoin: miter"/>
   </g>
   <g id="line2d_53">
    <path d="M 369.151266 318.954403 
L 369.151266 339.694331 
" clip-path="url(#p695e48e317)" style="fill: none; stroke: #262626"/>
   </g>
   <g id="line2d_54">
    <path d="M 369.151266 264.846235 
L 369.151266 245.212437 
" clip-path="url(#p695e48e317)" style="fill: none; stroke: #262626"/>
   </g>
   <g id="line2d_55">
    <path d="M 367.270805 339.694331 
L 371.031727 339.694331 
" clip-path="url(#p695e48e317)" style="fill: none; stroke: #262626; stroke-linecap: square"/>
   </g>
   <g id="line2d_56">
    <path d="M 367.270805 245.212437 
L 371.031727 245.212437 
" clip-path="url(#p695e48e317)" style="fill: none; stroke: #262626; stroke-linecap: square"/>
   </g>
   <g id="patch_12">
    <path d="M 415.535969 482.569391 
L 423.057813 482.569391 
L 423.057813 457.036235 
L 415.535969 457.036235 
L 415.535969 482.569391 
z
" clip-path="url(#p695e48e317)" style="fill: #101070; stroke: #262626; stroke-linejoin: miter"/>
   </g>
   <g id="line2d_57">
    <path d="M 419.296891 482.569391 
L 419.296891 498.700447 
" clip-path="url(#p695e48e317)" style="fill: none; stroke: #262626"/>
   </g>
   <g id="line2d_58">
    <path d="M 419.296891 457.036235 
L 419.296891 438.785099 
" clip-path="url(#p695e48e317)" style="fill: none; stroke: #262626"/>
   </g>
   <g id="line2d_59">
    <path d="M 417.41643 498.700447 
L 421.177352 498.700447 
" clip-path="url(#p695e48e317)" style="fill: none; stroke: #262626; stroke-linecap: square"/>
   </g>
   <g id="line2d_60">
    <path d="M 417.41643 438.785099 
L 421.177352 438.785099 
" clip-path="url(#p695e48e317)" style="fill: none; stroke: #262626; stroke-linecap: square"/>
   </g>
   <g id="patch_13">
    <path d="M 465.681594 396.199113 
L 473.203438 396.199113 
L 473.203438 369.928538 
L 465.681594 369.928538 
L 465.681594 396.199113 
z
" clip-path="url(#p695e48e317)" style="fill: #101070; stroke: #262626; stroke-linejoin: miter"/>
   </g>
   <g id="line2d_61">
    <path d="M 469.442516 396.199113 
L 469.442516 414.173717 
" clip-path="url(#p695e48e317)" style="fill: none; stroke: #262626"/>
   </g>
   <g id="line2d_62">
    <path d="M 469.442516 369.928538 
L 469.442516 358.406355 
" clip-path="url(#p695e48e317)" style="fill: none; stroke: #262626"/>
   </g>
   <g id="line2d_63">
    <path d="M 467.562055 414.173717 
L 471.322977 414.173717 
" clip-path="url(#p695e48e317)" style="fill: none; stroke: #262626; stroke-linecap: square"/>
   </g>
   <g id="line2d_64">
    <path d="M 467.562055 358.406355 
L 471.322977 358.406355 
" clip-path="url(#p695e48e317)" style="fill: none; stroke: #262626; stroke-linecap: square"/>
   </g>
   <g id="patch_14">
    <path d="M 515.827219 167.13813 
L 523.349063 167.13813 
L 523.349063 140.867554 
L 515.827219 140.867554 
L 515.827219 167.13813 
z
" clip-path="url(#p695e48e317)" style="fill: #101070; stroke: #262626; stroke-linejoin: miter"/>
   </g>
   <g id="line2d_65">
    <path d="M 519.588141 167.13813 
L 519.588141 177.27765 
" clip-path="url(#p695e48e317)" style="fill: none; stroke: #262626"/>
   </g>
   <g id="line2d_66">
    <path d="M 519.588141 140.867554 
L 519.588141 128.423597 
" clip-path="url(#p695e48e317)" style="fill: none; stroke: #262626"/>
   </g>
   <g id="line2d_67">
    <path d="M 517.70768 177.27765 
L 521.468602 177.27765 
" clip-path="url(#p695e48e317)" style="fill: none; stroke: #262626; stroke-linecap: square"/>
   </g>
   <g id="line2d_68">
    <path d="M 517.70768 128.423597 
L 521.468602 128.423597 
" clip-path="url(#p695e48e317)" style="fill: none; stroke: #262626; stroke-linecap: square"/>
   </g>
   <g id="patch_15">
    <path d="M 565.972844 335.085458 
L 573.494688 335.085458 
L 573.494688 217.559199 
L 565.972844 217.559199 
L 565.972844 335.085458 
z
" clip-path="url(#p695e48e317)" style="fill: #101070; stroke: #262626; stroke-linejoin: miter"/>
   </g>
   <g id="line2d_69">
    <path d="M 569.733766 335.085458 
L 569.733766 347.805948 
" clip-path="url(#p695e48e317)" style="fill: none; stroke: #262626"/>
   </g>
   <g id="line2d_70">
    <path d="M 569.733766 217.559199 
L 569.733766 203.73258 
" clip-path="url(#p695e48e317)" style="fill: none; stroke: #262626"/>
   </g>
   <g id="line2d_71">
    <path d="M 567.853305 347.805948 
L 571.614227 347.805948 
" clip-path="url(#p695e48e317)" style="fill: none; stroke: #262626; stroke-linecap: square"/>
   </g>
   <g id="line2d_72">
    <path d="M 567.853305 203.73258 
L 571.614227 203.73258 
" clip-path="url(#p695e48e317)" style="fill: none; stroke: #262626; stroke-linecap: square"/>
   </g>
   <g id="patch_16">
    <path d="M 616.118469 194.514835 
L 623.640313 194.514835 
L 623.640313 129.990614 
L 616.118469 129.990614 
L 616.118469 194.514835 
z
" clip-path="url(#p695e48e317)" style="fill: #101070; stroke: #262626; stroke-linejoin: miter"/>
   </g>
   <g id="line2d_73">
    <path d="M 619.879391 194.514835 
L 619.879391 199.123708 
" clip-path="url(#p695e48e317)" style="fill: none; stroke: #262626"/>
   </g>
   <g id="line2d_74">
    <path d="M 619.879391 129.990614 
L 619.879391 88.510758 
" clip-path="url(#p695e48e317)" style="fill: none; stroke: #262626"/>
   </g>
   <g id="line2d_75">
    <path d="M 617.99893 199.123708 
L 621.759852 199.123708 
" clip-path="url(#p695e48e317)" style="fill: none; stroke: #262626; stroke-linecap: square"/>
   </g>
   <g id="line2d_76">
    <path d="M 617.99893 88.510758 
L 621.759852 88.510758 
" clip-path="url(#p695e48e317)" style="fill: none; stroke: #262626; stroke-linecap: square"/>
   </g>
   <g id="patch_17">
    <path d="M 666.264094 411.131861 
L 673.785938 411.131861 
L 673.785938 275.170111 
L 666.264094 275.170111 
L 666.264094 411.131861 
z
" clip-path="url(#p695e48e317)" style="fill: #101070; stroke: #262626; stroke-linejoin: miter"/>
   </g>
   <g id="line2d_77">
    <path d="M 670.025016 411.131861 
L 670.025016 427.262916 
" clip-path="url(#p695e48e317)" style="fill: none; stroke: #262626"/>
   </g>
   <g id="line2d_78">
    <path d="M 670.025016 275.170111 
L 670.025016 245.212437 
" clip-path="url(#p695e48e317)" style="fill: none; stroke: #262626"/>
   </g>
   <g id="line2d_79">
    <path d="M 668.144555 427.262916 
L 671.905477 427.262916 
" clip-path="url(#p695e48e317)" style="fill: none; stroke: #262626; stroke-linecap: square"/>
   </g>
   <g id="line2d_80">
    <path d="M 668.144555 245.212437 
L 671.905477 245.212437 
" clip-path="url(#p695e48e317)" style="fill: none; stroke: #262626; stroke-linecap: square"/>
   </g>
   <g id="patch_18">
    <path d="M 716.409719 127.040935 
L 723.931563 127.040935 
L 723.931563 51.916307 
L 716.409719 51.916307 
L 716.409719 127.040935 
z
" clip-path="url(#p695e48e317)" style="fill: #101070; stroke: #262626; stroke-linejoin: miter"/>
   </g>
   <g id="line2d_81">
    <path d="M 720.170641 127.040935 
L 720.170641 127.040935 
" clip-path="url(#p695e48e317)" style="fill: none; stroke: #262626"/>
   </g>
   <g id="line2d_82">
    <path d="M 720.170641 51.916307 
L 720.170641 51.916307 
" clip-path="url(#p695e48e317)" style="fill: none; stroke: #262626"/>
   </g>
   <g id="line2d_83">
    <path d="M 718.29018 127.040935 
L 722.051102 127.040935 
" clip-path="url(#p695e48e317)" style="fill: none; stroke: #262626; stroke-linecap: square"/>
   </g>
   <g id="line2d_84">
    <path d="M 718.29018 51.916307 
L 722.051102 51.916307 
" clip-path="url(#p695e48e317)" style="fill: none; stroke: #262626; stroke-linecap: square"/>
   </g>
   <g id="patch_19">
    <path d="M 766.555344 632.357761 
L 774.077188 632.357761 
L 774.077188 611.617833 
L 766.555344 611.617833 
L 766.555344 632.357761 
z
" clip-path="url(#p695e48e317)" style="fill: #101070; stroke: #262626; stroke-linejoin: miter"/>
   </g>
   <g id="line2d_85">
    <path d="M 770.316266 632.357761 
L 770.316266 643.879943 
" clip-path="url(#p695e48e317)" style="fill: none; stroke: #262626"/>
   </g>
   <g id="line2d_86">
    <path d="M 770.316266 611.617833 
L 770.316266 597.791214 
" clip-path="url(#p695e48e317)" style="fill: none; stroke: #262626"/>
   </g>
   <g id="line2d_87">
    <path d="M 768.435805 643.879943 
L 772.196727 643.879943 
" clip-path="url(#p695e48e317)" style="fill: none; stroke: #262626; stroke-linecap: square"/>
   </g>
   <g id="line2d_88">
    <path d="M 768.435805 597.791214 
L 772.196727 597.791214 
" clip-path="url(#p695e48e317)" style="fill: none; stroke: #262626; stroke-linecap: square"/>
   </g>
   <g id="patch_20">
    <path d="M 816.700969 152.850624 
L 824.222813 152.850624 
L 824.222813 113.859559 
L 816.700969 113.859559 
L 816.700969 152.850624 
z
" clip-path="url(#p695e48e317)" style="fill: #101070; stroke: #262626; stroke-linejoin: miter"/>
   </g>
   <g id="line2d_89">
    <path d="M 820.461891 152.850624 
L 820.461891 158.381271 
" clip-path="url(#p695e48e317)" style="fill: none; stroke: #262626"/>
   </g>
   <g id="line2d_90">
    <path d="M 820.461891 113.859559 
L 820.461891 104.641813 
" clip-path="url(#p695e48e317)" style="fill: none; stroke: #262626"/>
   </g>
   <g id="line2d_91">
    <path d="M 818.58143 158.381271 
L 822.342352 158.381271 
" clip-path="url(#p695e48e317)" style="fill: none; stroke: #262626; stroke-linecap: square"/>
   </g>
   <g id="line2d_92">
    <path d="M 818.58143 104.641813 
L 822.342352 104.641813 
" clip-path="url(#p695e48e317)" style="fill: none; stroke: #262626; stroke-linecap: square"/>
   </g>
   <g id="patch_21">
    <path d="M 72.038438 431.623619 
L 79.560281 431.623619 
L 79.560281 384.205408 
L 72.038438 384.205408 
L 72.038438 431.623619 
z
" clip-path="url(#p695e48e317)" style="fill: #df9c20; stroke: #262626; stroke-linejoin: miter"/>
   </g>
   <g id="line2d_93">
    <path d="M 75.799359 431.623619 
L 75.799359 438.714193 
" clip-path="url(#p695e48e317)" style="fill: none; stroke: #262626"/>
   </g>
   <g id="line2d_94">
    <path d="M 75.799359 384.205408 
L 75.799359 381.103282 
" clip-path="url(#p695e48e317)" style="fill: none; stroke: #262626"/>
   </g>
   <g id="line2d_95">
    <path d="M 73.918898 438.714193 
L 77.67982 438.714193 
" clip-path="url(#p695e48e317)" style="fill: none; stroke: #262626; stroke-linecap: square"/>
   </g>
   <g id="line2d_96">
    <path d="M 73.918898 381.103282 
L 77.67982 381.103282 
" clip-path="url(#p695e48e317)" style="fill: none; stroke: #262626; stroke-linecap: square"/>
   </g>
   <g id="patch_22">
    <path d="M 122.184063 404.590807 
L 129.705906 404.590807 
L 129.705906 381.546443 
L 122.184063 381.546443 
L 122.184063 404.590807 
z
" clip-path="url(#p695e48e317)" style="fill: #df9c20; stroke: #262626; stroke-linejoin: miter"/>
   </g>
   <g id="line2d_97">
    <path d="M 125.944984 404.590807 
L 125.944984 406.806611 
" clip-path="url(#p695e48e317)" style="fill: none; stroke: #262626"/>
   </g>
   <g id="line2d_98">
    <path d="M 125.944984 381.546443 
L 125.944984 373.569547 
" clip-path="url(#p695e48e317)" style="fill: none; stroke: #262626"/>
   </g>
   <g id="line2d_99">
    <path d="M 124.064523 406.806611 
L 127.825445 406.806611 
" clip-path="url(#p695e48e317)" style="fill: none; stroke: #262626; stroke-linecap: square"/>
   </g>
   <g id="line2d_100">
    <path d="M 124.064523 373.569547 
L 127.825445 373.569547 
" clip-path="url(#p695e48e317)" style="fill: none; stroke: #262626; stroke-linecap: square"/>
   </g>
   <g id="patch_23">
    <path d="M 172.329688 437.827871 
L 179.851531 437.827871 
L 179.851531 412.567702 
L 172.329688 412.567702 
L 172.329688 437.827871 
z
" clip-path="url(#p695e48e317)" style="fill: #df9c20; stroke: #262626; stroke-linejoin: miter"/>
   </g>
   <g id="line2d_101">
    <path d="M 176.090609 437.827871 
L 176.090609 440.486836 
" clip-path="url(#p695e48e317)" style="fill: none; stroke: #262626"/>
   </g>
   <g id="line2d_102">
    <path d="M 176.090609 412.567702 
L 176.090609 409.908737 
" clip-path="url(#p695e48e317)" style="fill: none; stroke: #262626"/>
   </g>
   <g id="line2d_103">
    <path d="M 174.210148 440.486836 
L 177.97107 440.486836 
" clip-path="url(#p695e48e317)" style="fill: none; stroke: #262626; stroke-linecap: square"/>
   </g>
   <g id="line2d_104">
    <path d="M 174.210148 409.908737 
L 177.97107 409.908737 
" clip-path="url(#p695e48e317)" style="fill: none; stroke: #262626; stroke-linecap: square"/>
   </g>
   <g id="patch_24">
    <path d="M 222.475313 405.033968 
L 229.997156 405.033968 
L 229.997156 371.353743 
L 222.475313 371.353743 
L 222.475313 405.033968 
z
" clip-path="url(#p695e48e317)" style="fill: #df9c20; stroke: #262626; stroke-linejoin: miter"/>
   </g>
   <g id="line2d_105">
    <path d="M 226.236234 405.033968 
L 226.236234 411.23822 
" clip-path="url(#p695e48e317)" style="fill: none; stroke: #262626"/>
   </g>
   <g id="line2d_106">
    <path d="M 226.236234 371.353743 
L 226.236234 360.274721 
" clip-path="url(#p695e48e317)" style="fill: none; stroke: #262626"/>
   </g>
   <g id="line2d_107">
    <path d="M 224.355773 411.23822 
L 228.116695 411.23822 
" clip-path="url(#p695e48e317)" style="fill: none; stroke: #262626; stroke-linecap: square"/>
   </g>
   <g id="line2d_108">
    <path d="M 224.355773 360.274721 
L 228.116695 360.274721 
" clip-path="url(#p695e48e317)" style="fill: none; stroke: #262626; stroke-linecap: square"/>
   </g>
   <g id="patch_25">
    <path d="M 272.620938 426.74885 
L 280.142781 426.74885 
L 280.142781 396.170751 
L 272.620938 396.170751 
L 272.620938 426.74885 
z
" clip-path="url(#p695e48e317)" style="fill: #df9c20; stroke: #262626; stroke-linejoin: miter"/>
   </g>
   <g id="line2d_109">
    <path d="M 276.381859 426.74885 
L 276.381859 456.440627 
" clip-path="url(#p695e48e317)" style="fill: none; stroke: #262626"/>
   </g>
   <g id="line2d_110">
    <path d="M 276.381859 396.170751 
L 276.381859 389.523338 
" clip-path="url(#p695e48e317)" style="fill: none; stroke: #262626"/>
   </g>
   <g id="line2d_111">
    <path d="M 274.501398 456.440627 
L 278.26232 456.440627 
" clip-path="url(#p695e48e317)" style="fill: none; stroke: #262626; stroke-linecap: square"/>
   </g>
   <g id="line2d_112">
    <path d="M 274.501398 389.523338 
L 278.26232 389.523338 
" clip-path="url(#p695e48e317)" style="fill: none; stroke: #262626; stroke-linecap: square"/>
   </g>
   <g id="patch_26">
    <path d="M 322.766563 312.413349 
L 330.288406 312.413349 
L 330.288406 290.255306 
L 322.766563 290.255306 
L 322.766563 312.413349 
z
" clip-path="url(#p695e48e317)" style="fill: #df9c20; stroke: #262626; stroke-linejoin: miter"/>
   </g>
   <g id="line2d_113">
    <path d="M 326.527484 312.413349 
L 326.527484 320.833405 
" clip-path="url(#p695e48e317)" style="fill: none; stroke: #262626"/>
   </g>
   <g id="line2d_114">
    <path d="M 326.527484 290.255306 
L 326.527484 281.83525 
" clip-path="url(#p695e48e317)" style="fill: none; stroke: #262626"/>
   </g>
   <g id="line2d_115">
    <path d="M 324.647023 320.833405 
L 328.407945 320.833405 
" clip-path="url(#p695e48e317)" style="fill: none; stroke: #262626; stroke-linecap: square"/>
   </g>
   <g id="line2d_116">
    <path d="M 324.647023 281.83525 
L 328.407945 281.83525 
" clip-path="url(#p695e48e317)" style="fill: none; stroke: #262626; stroke-linecap: square"/>
   </g>
   <g id="patch_27">
    <path d="M 372.912188 351.854665 
L 380.434031 351.854665 
L 380.434031 338.116679 
L 372.912188 338.116679 
L 372.912188 351.854665 
z
" clip-path="url(#p695e48e317)" style="fill: #df9c20; stroke: #262626; stroke-linejoin: miter"/>
   </g>
   <g id="line2d_117">
    <path d="M 376.673109 351.854665 
L 376.673109 359.3884 
" clip-path="url(#p695e48e317)" style="fill: none; stroke: #262626"/>
   </g>
   <g id="line2d_118">
    <path d="M 376.673109 338.116679 
L 376.673109 335.014553 
" clip-path="url(#p695e48e317)" style="fill: none; stroke: #262626"/>
   </g>
   <g id="line2d_119">
    <path d="M 374.792648 359.3884 
L 378.55357 359.3884 
" clip-path="url(#p695e48e317)" style="fill: none; stroke: #262626; stroke-linecap: square"/>
   </g>
   <g id="line2d_120">
    <path d="M 374.792648 335.014553 
L 378.55357 335.014553 
" clip-path="url(#p695e48e317)" style="fill: none; stroke: #262626; stroke-linecap: square"/>
   </g>
   <g id="patch_28">
    <path d="M 423.057813 484.359761 
L 430.579656 484.359761 
L 430.579656 416.112989 
L 423.057813 416.112989 
L 423.057813 484.359761 
z
" clip-path="url(#p695e48e317)" style="fill: #df9c20; stroke: #262626; stroke-linejoin: miter"/>
   </g>
   <g id="line2d_121">
    <path d="M 426.818734 484.359761 
L 426.818734 510.506252 
" clip-path="url(#p695e48e317)" style="fill: none; stroke: #262626"/>
   </g>
   <g id="line2d_122">
    <path d="M 426.818734 416.112989 
L 426.818734 407.692933 
" clip-path="url(#p695e48e317)" style="fill: none; stroke: #262626"/>
   </g>
   <g id="line2d_123">
    <path d="M 424.938273 510.506252 
L 428.699195 510.506252 
" clip-path="url(#p695e48e317)" style="fill: none; stroke: #262626; stroke-linecap: square"/>
   </g>
   <g id="line2d_124">
    <path d="M 424.938273 407.692933 
L 428.699195 407.692933 
" clip-path="url(#p695e48e317)" style="fill: none; stroke: #262626; stroke-linecap: square"/>
   </g>
   <g id="patch_29">
    <path d="M 473.203438 509.176769 
L 480.725281 509.176769 
L 480.725281 484.359761 
L 473.203438 484.359761 
L 473.203438 509.176769 
z
" clip-path="url(#p695e48e317)" style="fill: #df9c20; stroke: #262626; stroke-linejoin: miter"/>
   </g>
   <g id="line2d_125">
    <path d="M 476.964359 509.176769 
L 476.964359 512.722056 
" clip-path="url(#p695e48e317)" style="fill: none; stroke: #262626"/>
   </g>
   <g id="line2d_126">
    <path d="M 476.964359 484.359761 
L 476.964359 484.359761 
" clip-path="url(#p695e48e317)" style="fill: none; stroke: #262626"/>
   </g>
   <g id="line2d_127">
    <path d="M 475.083898 512.722056 
L 478.84482 512.722056 
" clip-path="url(#p695e48e317)" style="fill: none; stroke: #262626; stroke-linecap: square"/>
   </g>
   <g id="line2d_128">
    <path d="M 475.083898 484.359761 
L 478.84482 484.359761 
" clip-path="url(#p695e48e317)" style="fill: none; stroke: #262626; stroke-linecap: square"/>
   </g>
   <g id="patch_30">
    <path d="M 523.349063 351.854665 
L 530.870906 351.854665 
L 530.870906 290.255306 
L 523.349063 290.255306 
L 523.349063 351.854665 
z
" clip-path="url(#p695e48e317)" style="fill: #df9c20; stroke: #262626; stroke-linejoin: miter"/>
   </g>
   <g id="line2d_129">
    <path d="M 527.109984 351.854665 
L 527.109984 363.820008 
" clip-path="url(#p695e48e317)" style="fill: none; stroke: #262626"/>
   </g>
   <g id="line2d_130">
    <path d="M 527.109984 290.255306 
L 527.109984 281.83525 
" clip-path="url(#p695e48e317)" style="fill: none; stroke: #262626"/>
   </g>
   <g id="line2d_131">
    <path d="M 525.229523 363.820008 
L 528.990445 363.820008 
" clip-path="url(#p695e48e317)" style="fill: none; stroke: #262626; stroke-linecap: square"/>
   </g>
   <g id="line2d_132">
    <path d="M 525.229523 281.83525 
L 528.990445 281.83525 
" clip-path="url(#p695e48e317)" style="fill: none; stroke: #262626; stroke-linecap: square"/>
   </g>
   <g id="patch_31">
    <path d="M 573.494688 519.369469 
L 581.016531 519.369469 
L 581.016531 503.858839 
L 573.494688 503.858839 
L 573.494688 519.369469 
z
" clip-path="url(#p695e48e317)" style="fill: #df9c20; stroke: #262626; stroke-linejoin: miter"/>
   </g>
   <g id="line2d_133">
    <path d="M 577.255609 519.369469 
L 577.255609 529.562169 
" clip-path="url(#p695e48e317)" style="fill: none; stroke: #262626"/>
   </g>
   <g id="line2d_134">
    <path d="M 577.255609 503.858839 
L 577.255609 491.893496 
" clip-path="url(#p695e48e317)" style="fill: none; stroke: #262626"/>
   </g>
   <g id="line2d_135">
    <path d="M 575.375148 529.562169 
L 579.13607 529.562169 
" clip-path="url(#p695e48e317)" style="fill: none; stroke: #262626; stroke-linecap: square"/>
   </g>
   <g id="line2d_136">
    <path d="M 575.375148 491.893496 
L 579.13607 491.893496 
" clip-path="url(#p695e48e317)" style="fill: none; stroke: #262626; stroke-linecap: square"/>
   </g>
   <g id="patch_32">
    <path d="M 623.640313 253.916116 
L 631.162156 253.916116 
L 631.162156 201.179974 
L 623.640313 201.179974 
L 623.640313 253.916116 
z
" clip-path="url(#p695e48e317)" style="fill: #df9c20; stroke: #262626; stroke-linejoin: miter"/>
   </g>
   <g id="line2d_137">
    <path d="M 627.401234 253.916116 
L 627.401234 254.802438 
" clip-path="url(#p695e48e317)" style="fill: none; stroke: #262626"/>
   </g>
   <g id="line2d_138">
    <path d="M 627.401234 201.179974 
L 627.401234 191.873596 
" clip-path="url(#p695e48e317)" style="fill: none; stroke: #262626"/>
   </g>
   <g id="line2d_139">
    <path d="M 625.520773 254.802438 
L 629.281695 254.802438 
" clip-path="url(#p695e48e317)" style="fill: none; stroke: #262626; stroke-linecap: square"/>
   </g>
   <g id="line2d_140">
    <path d="M 625.520773 191.873596 
L 629.281695 191.873596 
" clip-path="url(#p695e48e317)" style="fill: none; stroke: #262626; stroke-linecap: square"/>
   </g>
   <g id="patch_33">
    <path d="M 673.785938 451.122697 
L 681.307781 451.122697 
L 681.307781 398.386555 
L 673.785938 398.386555 
L 673.785938 451.122697 
z
" clip-path="url(#p695e48e317)" style="fill: #df9c20; stroke: #262626; stroke-linejoin: miter"/>
   </g>
   <g id="line2d_141">
    <path d="M 677.546859 451.122697 
L 677.546859 467.96281 
" clip-path="url(#p695e48e317)" style="fill: none; stroke: #262626"/>
   </g>
   <g id="line2d_142">
    <path d="M 677.546859 398.386555 
L 677.546859 392.625464 
" clip-path="url(#p695e48e317)" style="fill: none; stroke: #262626"/>
   </g>
   <g id="line2d_143">
    <path d="M 675.666398 467.96281 
L 679.42732 467.96281 
" clip-path="url(#p695e48e317)" style="fill: none; stroke: #262626; stroke-linecap: square"/>
   </g>
   <g id="line2d_144">
    <path d="M 675.666398 392.625464 
L 679.42732 392.625464 
" clip-path="url(#p695e48e317)" style="fill: none; stroke: #262626; stroke-linecap: square"/>
   </g>
   <g id="patch_34">
    <path d="M 723.931563 245.052899 
L 731.453406 245.052899 
L 731.453406 163.06814 
L 723.931563 163.06814 
L 723.931563 245.052899 
z
" clip-path="url(#p695e48e317)" style="fill: #df9c20; stroke: #262626; stroke-linejoin: miter"/>
   </g>
   <g id="line2d_145">
    <path d="M 727.692484 245.052899 
L 727.692484 254.802438 
" clip-path="url(#p695e48e317)" style="fill: none; stroke: #262626"/>
   </g>
   <g id="line2d_146">
    <path d="M 727.692484 163.06814 
L 727.692484 159.966014 
" clip-path="url(#p695e48e317)" style="fill: none; stroke: #262626"/>
   </g>
   <g id="line2d_147">
    <path d="M 725.812023 254.802438 
L 729.572945 254.802438 
" clip-path="url(#p695e48e317)" style="fill: none; stroke: #262626; stroke-linecap: square"/>
   </g>
   <g id="line2d_148">
    <path d="M 725.812023 159.966014 
L 729.572945 159.966014 
" clip-path="url(#p695e48e317)" style="fill: none; stroke: #262626; stroke-linecap: square"/>
   </g>
   <g id="patch_35">
    <path d="M 774.077188 420.101437 
L 781.599031 420.101437 
L 781.599031 388.637016 
L 774.077188 388.637016 
L 774.077188 420.101437 
z
" clip-path="url(#p695e48e317)" style="fill: #df9c20; stroke: #262626; stroke-linejoin: miter"/>
   </g>
   <g id="line2d_149">
    <path d="M 777.838109 420.101437 
L 777.838109 427.192011 
" clip-path="url(#p695e48e317)" style="fill: none; stroke: #262626"/>
   </g>
   <g id="line2d_150">
    <path d="M 777.838109 388.637016 
L 777.838109 378.444317 
" clip-path="url(#p695e48e317)" style="fill: none; stroke: #262626"/>
   </g>
   <g id="line2d_151">
    <path d="M 775.957648 427.192011 
L 779.71857 427.192011 
" clip-path="url(#p695e48e317)" style="fill: none; stroke: #262626; stroke-linecap: square"/>
   </g>
   <g id="line2d_152">
    <path d="M 775.957648 378.444317 
L 779.71857 378.444317 
" clip-path="url(#p695e48e317)" style="fill: none; stroke: #262626; stroke-linecap: square"/>
   </g>
   <g id="patch_36">
    <path d="M 824.222813 227.326464 
L 831.744656 227.326464 
L 831.744656 214.031639 
L 824.222813 214.031639 
L 824.222813 227.326464 
z
" clip-path="url(#p695e48e317)" style="fill: #df9c20; stroke: #262626; stroke-linejoin: miter"/>
   </g>
   <g id="line2d_153">
    <path d="M 827.983734 227.326464 
L 827.983734 246.382381 
" clip-path="url(#p695e48e317)" style="fill: none; stroke: #262626"/>
   </g>
   <g id="line2d_154">
    <path d="M 827.983734 214.031639 
L 827.983734 207.384226 
" clip-path="url(#p695e48e317)" style="fill: none; stroke: #262626"/>
   </g>
   <g id="line2d_155">
    <path d="M 826.103273 246.382381 
L 829.864195 246.382381 
" clip-path="url(#p695e48e317)" style="fill: none; stroke: #262626; stroke-linecap: square"/>
   </g>
   <g id="line2d_156">
    <path d="M 826.103273 207.384226 
L 829.864195 207.384226 
" clip-path="url(#p695e48e317)" style="fill: none; stroke: #262626; stroke-linecap: square"/>
   </g>
   <g id="line2d_157">
    <path d="M 72.038438 673.478125 
L 72.038438 22.318125 
" clip-path="url(#p695e48e317)" style="fill: none; stroke-dasharray: 1.85,0.8; stroke-dashoffset: 0; stroke: #808080; stroke-width: 0.5"/>
   </g>
   <g id="line2d_158">
    <path d="M 122.184063 673.478125 
L 122.184063 22.318125 
" clip-path="url(#p695e48e317)" style="fill: none; stroke-dasharray: 1.85,0.8; stroke-dashoffset: 0; stroke: #808080; stroke-width: 0.5"/>
   </g>
   <g id="line2d_159">
    <path d="M 172.329688 673.478125 
L 172.329688 22.318125 
" clip-path="url(#p695e48e317)" style="fill: none; stroke-dasharray: 1.85,0.8; stroke-dashoffset: 0; stroke: #808080; stroke-width: 0.5"/>
   </g>
   <g id="line2d_160">
    <path d="M 222.475313 673.478125 
L 222.475313 22.318125 
" clip-path="url(#p695e48e317)" style="fill: none; stroke-dasharray: 1.85,0.8; stroke-dashoffset: 0; stroke: #808080; stroke-width: 0.5"/>
   </g>
   <g id="line2d_161">
    <path d="M 272.620938 673.478125 
L 272.620938 22.318125 
" clip-path="url(#p695e48e317)" style="fill: none; stroke-dasharray: 1.85,0.8; stroke-dashoffset: 0; stroke: #808080; stroke-width: 0.5"/>
   </g>
   <g id="line2d_162">
    <path d="M 322.766563 673.478125 
L 322.766563 22.318125 
" clip-path="url(#p695e48e317)" style="fill: none; stroke-dasharray: 1.85,0.8; stroke-dashoffset: 0; stroke: #808080; stroke-width: 0.5"/>
   </g>
   <g id="line2d_163">
    <path d="M 372.912188 673.478125 
L 372.912188 22.318125 
" clip-path="url(#p695e48e317)" style="fill: none; stroke-dasharray: 1.85,0.8; stroke-dashoffset: 0; stroke: #808080; stroke-width: 0.5"/>
   </g>
   <g id="line2d_164">
    <path d="M 423.057813 673.478125 
L 423.057813 22.318125 
" clip-path="url(#p695e48e317)" style="fill: none; stroke-dasharray: 1.85,0.8; stroke-dashoffset: 0; stroke: #808080; stroke-width: 0.5"/>
   </g>
   <g id="line2d_165">
    <path d="M 473.203438 673.478125 
L 473.203438 22.318125 
" clip-path="url(#p695e48e317)" style="fill: none; stroke-dasharray: 1.85,0.8; stroke-dashoffset: 0; stroke: #808080; stroke-width: 0.5"/>
   </g>
   <g id="line2d_166">
    <path d="M 523.349063 673.478125 
L 523.349063 22.318125 
" clip-path="url(#p695e48e317)" style="fill: none; stroke-dasharray: 1.85,0.8; stroke-dashoffset: 0; stroke: #808080; stroke-width: 0.5"/>
   </g>
   <g id="line2d_167">
    <path d="M 573.494688 673.478125 
L 573.494688 22.318125 
" clip-path="url(#p695e48e317)" style="fill: none; stroke-dasharray: 1.85,0.8; stroke-dashoffset: 0; stroke: #808080; stroke-width: 0.5"/>
   </g>
   <g id="line2d_168">
    <path d="M 623.640313 673.478125 
L 623.640313 22.318125 
" clip-path="url(#p695e48e317)" style="fill: none; stroke-dasharray: 1.85,0.8; stroke-dashoffset: 0; stroke: #808080; stroke-width: 0.5"/>
   </g>
   <g id="line2d_169">
    <path d="M 673.785938 673.478125 
L 673.785938 22.318125 
" clip-path="url(#p695e48e317)" style="fill: none; stroke-dasharray: 1.85,0.8; stroke-dashoffset: 0; stroke: #808080; stroke-width: 0.5"/>
   </g>
   <g id="line2d_170">
    <path d="M 723.931563 673.478125 
L 723.931563 22.318125 
" clip-path="url(#p695e48e317)" style="fill: none; stroke-dasharray: 1.85,0.8; stroke-dashoffset: 0; stroke: #808080; stroke-width: 0.5"/>
   </g>
   <g id="line2d_171">
    <path d="M 774.077188 673.478125 
L 774.077188 22.318125 
" clip-path="url(#p695e48e317)" style="fill: none; stroke-dasharray: 1.85,0.8; stroke-dashoffset: 0; stroke: #808080; stroke-width: 0.5"/>
   </g>
   <g id="line2d_172">
    <path d="M 824.222813 673.478125 
L 824.222813 22.318125 
" clip-path="url(#p695e48e317)" style="fill: none; stroke-dasharray: 1.85,0.8; stroke-dashoffset: 0; stroke: #808080; stroke-width: 0.5"/>
   </g>
   <g id="line2d_173">
    <path d="M 64.516594 333.979329 
L 72.038438 333.979329 
" clip-path="url(#p695e48e317)" style="fill: none; stroke: #262626"/>
   </g>
   <g id="line2d_174">
    <path d="M 114.662219 168.059904 
L 122.184063 168.059904 
" clip-path="url(#p695e48e317)" style="fill: none; stroke: #262626"/>
   </g>
   <g id="line2d_175">
    <path d="M 164.807844 238.57566 
L 172.329688 238.57566 
" clip-path="url(#p695e48e317)" style="fill: none; stroke: #262626"/>
   </g>
   <g id="line2d_176">
    <path d="M 214.953469 213.687746 
L 222.475313 213.687746 
" clip-path="url(#p695e48e317)" style="fill: none; stroke: #262626"/>
   </g>
   <g id="line2d_177">
    <path d="M 265.099094 372.693861 
L 272.620938 372.693861 
" clip-path="url(#p695e48e317)" style="fill: none; stroke: #262626"/>
   </g>
   <g id="line2d_178">
    <path d="M 315.244719 148.702638 
L 322.766563 148.702638 
" clip-path="url(#p695e48e317)" style="fill: none; stroke: #262626"/>
   </g>
   <g id="line2d_179">
    <path d="M 365.390344 307.432221 
L 372.912188 307.432221 
" clip-path="url(#p695e48e317)" style="fill: none; stroke: #262626"/>
   </g>
   <g id="line2d_180">
    <path d="M 415.535969 473.628178 
L 423.057813 473.628178 
" clip-path="url(#p695e48e317)" style="fill: none; stroke: #262626"/>
   </g>
   <g id="line2d_181">
    <path d="M 465.681594 374.53741 
L 473.203438 374.53741 
" clip-path="url(#p695e48e317)" style="fill: none; stroke: #262626"/>
   </g>
   <g id="line2d_182">
    <path d="M 515.827219 162.529257 
L 523.349063 162.529257 
" clip-path="url(#p695e48e317)" style="fill: none; stroke: #262626"/>
   </g>
   <g id="line2d_183">
    <path d="M 565.972844 224.472509 
L 573.494688 224.472509 
" clip-path="url(#p695e48e317)" style="fill: none; stroke: #262626"/>
   </g>
   <g id="line2d_184">
    <path d="M 616.118469 162.252724 
L 623.640313 162.252724 
" clip-path="url(#p695e48e317)" style="fill: none; stroke: #262626"/>
   </g>
   <g id="line2d_185">
    <path d="M 666.264094 385.78306 
L 673.785938 385.78306 
" clip-path="url(#p695e48e317)" style="fill: none; stroke: #262626"/>
   </g>
   <g id="line2d_186">
    <path d="M 716.409719 98.005036 
L 723.931563 98.005036 
" clip-path="url(#p695e48e317)" style="fill: none; stroke: #262626"/>
   </g>
   <g id="line2d_187">
    <path d="M 766.555344 614.659689 
L 774.077188 614.659689 
" clip-path="url(#p695e48e317)" style="fill: none; stroke: #262626"/>
   </g>
   <g id="line2d_188">
    <path d="M 816.700969 139.024005 
L 824.222813 139.024005 
" clip-path="url(#p695e48e317)" style="fill: none; stroke: #262626"/>
   </g>
   <g id="line2d_189">
    <path d="M 72.038438 429.407815 
L 79.560281 429.407815 
" clip-path="url(#p695e48e317)" style="fill: none; stroke: #262626"/>
   </g>
   <g id="line2d_190">
    <path d="M 122.184063 385.53489 
L 129.705906 385.53489 
" clip-path="url(#p695e48e317)" style="fill: none; stroke: #262626"/>
   </g>
   <g id="line2d_191">
    <path d="M 172.329688 428.078332 
L 179.851531 428.078332 
" clip-path="url(#p695e48e317)" style="fill: none; stroke: #262626"/>
   </g>
   <g id="line2d_192">
    <path d="M 222.475313 376.671673 
L 229.997156 376.671673 
" clip-path="url(#p695e48e317)" style="fill: none; stroke: #262626"/>
   </g>
   <g id="line2d_193">
    <path d="M 272.620938 403.261324 
L 280.142781 403.261324 
" clip-path="url(#p695e48e317)" style="fill: none; stroke: #262626"/>
   </g>
   <g id="line2d_194">
    <path d="M 322.766563 304.436453 
L 330.288406 304.436453 
" clip-path="url(#p695e48e317)" style="fill: none; stroke: #262626"/>
   </g>
   <g id="line2d_195">
    <path d="M 372.912188 346.093574 
L 380.434031 346.093574 
" clip-path="url(#p695e48e317)" style="fill: none; stroke: #262626"/>
   </g>
   <g id="line2d_196">
    <path d="M 423.057813 433.839424 
L 430.579656 433.839424 
" clip-path="url(#p695e48e317)" style="fill: none; stroke: #262626"/>
   </g>
   <g id="line2d_197">
    <path d="M 473.203438 500.313552 
L 480.725281 500.313552 
" clip-path="url(#p695e48e317)" style="fill: none; stroke: #262626"/>
   </g>
   <g id="line2d_198">
    <path d="M 523.349063 301.777488 
L 530.870906 301.777488 
" clip-path="url(#p695e48e317)" style="fill: none; stroke: #262626"/>
   </g>
   <g id="line2d_199">
    <path d="M 573.494688 512.278895 
L 581.016531 512.278895 
" clip-path="url(#p695e48e317)" style="fill: none; stroke: #262626"/>
   </g>
   <g id="line2d_200">
    <path d="M 623.640313 250.370829 
L 631.162156 250.370829 
" clip-path="url(#p695e48e317)" style="fill: none; stroke: #262626"/>
   </g>
   <g id="line2d_201">
    <path d="M 673.785938 428.078332 
L 681.307781 428.078332 
" clip-path="url(#p695e48e317)" style="fill: none; stroke: #262626"/>
   </g>
   <g id="line2d_202">
    <path d="M 723.931563 196.748365 
L 731.453406 196.748365 
" clip-path="url(#p695e48e317)" style="fill: none; stroke: #262626"/>
   </g>
   <g id="line2d_203">
    <path d="M 774.077188 414.340346 
L 781.599031 414.340346 
" clip-path="url(#p695e48e317)" style="fill: none; stroke: #262626"/>
   </g>
   <g id="line2d_204">
    <path d="M 824.222813 225.553821 
L 831.744656 225.553821 
" clip-path="url(#p695e48e317)" style="fill: none; stroke: #262626"/>
   </g>
   <g id="patch_37">
    <path d="M 46.965625 673.478125 
L 46.965625 22.318125 
" style="fill: none; stroke: #000000; stroke-width: 0.8; stroke-linejoin: miter; stroke-linecap: square"/>
   </g>
   <g id="patch_38">
    <path d="M 849.295625 673.478125 
L 849.295625 22.318125 
" style="fill: none; stroke: #000000; stroke-width: 0.8; stroke-linejoin: miter; stroke-linecap: square"/>
   </g>
   <g id="patch_39">
    <path d="M 46.965625 673.478125 
L 849.295625 673.478125 
" style="fill: none; stroke: #000000; stroke-width: 0.8; stroke-linejoin: miter; stroke-linecap: square"/>
   </g>
   <g id="patch_40">
    <path d="M 46.965625 22.318125 
L 849.295625 22.318125 
" style="fill: none; stroke: #000000; stroke-width: 0.8; stroke-linejoin: miter; stroke-linecap: square"/>
   </g>
   <g id="text_25">
    <!-- Comparison of Carbohydrates/mg between Fucoidan and Alginate -->
    <g transform="translate(250.163438 16.318125) scale(0.12 -0.12)">
     <defs>
      <path id="DejaVuSans-70" d="M 1159 525 
L 1159 -1331 
L 581 -1331 
L 581 3500 
L 1159 3500 
L 1159 2969 
Q 1341 3281 1617 3432 
Q 1894 3584 2278 3584 
Q 2916 3584 3314 3078 
Q 3713 2572 3713 1747 
Q 3713 922 3314 415 
Q 2916 -91 2278 -91 
Q 1894 -91 1617 61 
Q 1341 213 1159 525 
z
M 3116 1747 
Q 3116 2381 2855 2742 
Q 2594 3103 2138 3103 
Q 1681 3103 1420 2742 
Q 1159 2381 1159 1747 
Q 1159 1113 1420 752 
Q 1681 391 2138 391 
Q 2594 391 2855 752 
Q 3116 1113 3116 1747 
z
" transform="scale(0.015625)"/>
      <path id="DejaVuSans-66" d="M 2375 4863 
L 2375 4384 
L 1825 4384 
Q 1516 4384 1395 4259 
Q 1275 4134 1275 3809 
L 1275 3500 
L 2222 3500 
L 2222 3053 
L 1275 3053 
L 1275 0 
L 697 0 
L 697 3053 
L 147 3053 
L 147 3500 
L 697 3500 
L 697 3744 
Q 697 4328 969 4595 
Q 1241 4863 1831 4863 
L 2375 4863 
z
" transform="scale(0.015625)"/>
      <path id="DejaVuSans-77" d="M 269 3500 
L 844 3500 
L 1563 769 
L 2278 3500 
L 2956 3500 
L 3675 769 
L 4391 3500 
L 4966 3500 
L 4050 0 
L 3372 0 
L 2619 2869 
L 1863 0 
L 1184 0 
L 269 3500 
z
" transform="scale(0.015625)"/>
      <path id="DejaVuSans-46" d="M 628 4666 
L 3309 4666 
L 3309 4134 
L 1259 4134 
L 1259 2759 
L 3109 2759 
L 3109 2228 
L 1259 2228 
L 1259 0 
L 628 0 
L 628 4666 
z
" transform="scale(0.015625)"/>
      <path id="DejaVuSans-75" d="M 544 1381 
L 544 3500 
L 1119 3500 
L 1119 1403 
Q 1119 906 1312 657 
Q 1506 409 1894 409 
Q 2359 409 2629 706 
Q 2900 1003 2900 1516 
L 2900 3500 
L 3475 3500 
L 3475 0 
L 2900 0 
L 2900 538 
Q 2691 219 2414 64 
Q 2138 -91 1772 -91 
Q 1169 -91 856 284 
Q 544 659 544 1381 
z
M 1991 3584 
L 1991 3584 
z
" transform="scale(0.015625)"/>
      <path id="DejaVuSans-41" d="M 2188 4044 
L 1331 1722 
L 3047 1722 
L 2188 4044 
z
M 1831 4666 
L 2547 4666 
L 4325 0 
L 3669 0 
L 3244 1197 
L 1141 1197 
L 716 0 
L 50 0 
L 1831 4666 
z
" transform="scale(0.015625)"/>
      <path id="DejaVuSans-6c" d="M 603 4863 
L 1178 4863 
L 1178 0 
L 603 0 
L 603 4863 
z
" transform="scale(0.015625)"/>
     </defs>
     <use xlink:href="#DejaVuSans-43"/>
     <use xlink:href="#DejaVuSans-6f" transform="translate(69.824219 0)"/>
     <use xlink:href="#DejaVuSans-6d" transform="translate(131.005859 0)"/>
     <use xlink:href="#DejaVuSans-70" transform="translate(228.417969 0)"/>
     <use xlink:href="#DejaVuSans-61" transform="translate(291.894531 0)"/>
     <use xlink:href="#DejaVuSans-72" transform="translate(353.173828 0)"/>
     <use xlink:href="#DejaVuSans-69" transform="translate(394.287109 0)"/>
     <use xlink:href="#DejaVuSans-73" transform="translate(422.070312 0)"/>
     <use xlink:href="#DejaVuSans-6f" transform="translate(474.169922 0)"/>
     <use xlink:href="#DejaVuSans-6e" transform="translate(535.351562 0)"/>
     <use xlink:href="#DejaVuSans-20" transform="translate(598.730469 0)"/>
     <use xlink:href="#DejaVuSans-6f" transform="translate(630.517578 0)"/>
     <use xlink:href="#DejaVuSans-66" transform="translate(691.699219 0)"/>
     <use xlink:href="#DejaVuSans-20" transform="translate(726.904297 0)"/>
     <use xlink:href="#DejaVuSans-43" transform="translate(758.691406 0)"/>
     <use xlink:href="#DejaVuSans-61" transform="translate(828.515625 0)"/>
     <use xlink:href="#DejaVuSans-72" transform="translate(889.794922 0)"/>
     <use xlink:href="#DejaVuSans-62" transform="translate(930.908203 0)"/>
     <use xlink:href="#DejaVuSans-6f" transform="translate(994.384766 0)"/>
     <use xlink:href="#DejaVuSans-68" transform="translate(1055.566406 0)"/>
     <use xlink:href="#DejaVuSans-79" transform="translate(1118.945312 0)"/>
     <use xlink:href="#DejaVuSans-64" transform="translate(1178.125 0)"/>
     <use xlink:href="#DejaVuSans-72" transform="translate(1241.601562 0)"/>
     <use xlink:href="#DejaVuSans-61" transform="translate(1282.714844 0)"/>
     <use xlink:href="#DejaVuSans-74" transform="translate(1343.994141 0)"/>
     <use xlink:href="#DejaVuSans-65" transform="translate(1383.203125 0)"/>
     <use xlink:href="#DejaVuSans-73" transform="translate(1444.726562 0)"/>
     <use xlink:href="#DejaVuSans-2f" transform="translate(1496.826172 0)"/>
     <use xlink:href="#DejaVuSans-6d" transform="translate(1530.517578 0)"/>
     <use xlink:href="#DejaVuSans-67" transform="translate(1627.929688 0)"/>
     <use xlink:href="#DejaVuSans-20" transform="translate(1691.40625 0)"/>
     <use xlink:href="#DejaVuSans-62" transform="translate(1723.193359 0)"/>
     <use xlink:href="#DejaVuSans-65" transform="translate(1786.669922 0)"/>
     <use xlink:href="#DejaVuSans-74" transform="translate(1848.193359 0)"/>
     <use xlink:href="#DejaVuSans-77" transform="translate(1887.402344 0)"/>
     <use xlink:href="#DejaVuSans-65" transform="translate(1969.189453 0)"/>
     <use xlink:href="#DejaVuSans-65" transform="translate(2030.712891 0)"/>
     <use xlink:href="#DejaVuSans-6e" transform="translate(2092.236328 0)"/>
     <use xlink:href="#DejaVuSans-20" transform="translate(2155.615234 0)"/>
     <use xlink:href="#DejaVuSans-46" transform="translate(2187.402344 0)"/>
     <use xlink:href="#DejaVuSans-75" transform="translate(2239.421875 0)"/>
     <use xlink:href="#DejaVuSans-63" transform="translate(2302.800781 0)"/>
     <use xlink:href="#DejaVuSans-6f" transform="translate(2357.78125 0)"/>
     <use xlink:href="#DejaVuSans-69" transform="translate(2418.962891 0)"/>
     <use xlink:href="#DejaVuSans-64" transform="translate(2446.746094 0)"/>
     <use xlink:href="#DejaVuSans-61" transform="translate(2510.222656 0)"/>
     <use xlink:href="#DejaVuSans-6e" transform="translate(2571.501953 0)"/>
     <use xlink:href="#DejaVuSans-20" transform="translate(2634.880859 0)"/>
     <use xlink:href="#DejaVuSans-61" transform="translate(2666.667969 0)"/>
     <use xlink:href="#DejaVuSans-6e" transform="translate(2727.947266 0)"/>
     <use xlink:href="#DejaVuSans-64" transform="translate(2791.326172 0)"/>
     <use xlink:href="#DejaVuSans-20" transform="translate(2854.802734 0)"/>
     <use xlink:href="#DejaVuSans-41" transform="translate(2886.589844 0)"/>
     <use xlink:href="#DejaVuSans-6c" transform="translate(2954.998047 0)"/>
     <use xlink:href="#DejaVuSans-67" transform="translate(2982.78125 0)"/>
     <use xlink:href="#DejaVuSans-69" transform="translate(3046.257812 0)"/>
     <use xlink:href="#DejaVuSans-6e" transform="translate(3074.041016 0)"/>
     <use xlink:href="#DejaVuSans-61" transform="translate(3137.419922 0)"/>
     <use xlink:href="#DejaVuSans-74" transform="translate(3198.699219 0)"/>
     <use xlink:href="#DejaVuSans-65" transform="translate(3237.908203 0)"/>
    </g>
   </g>
   <g id="legend_1">
    <g id="patch_41">
     <path d="M 53.965625 74.3525 
L 130.714063 74.3525 
Q 132.714063 74.3525 132.714063 72.3525 
L 132.714063 29.318125 
Q 132.714063 27.318125 130.714063 27.318125 
L 53.965625 27.318125 
Q 51.965625 27.318125 51.965625 29.318125 
L 51.965625 72.3525 
Q 51.965625 74.3525 53.965625 74.3525 
z
" style="fill: #ffffff; opacity: 0.8; stroke: #cccccc; stroke-linejoin: miter"/>
    </g>
    <g id="text_26">
     <!-- Substrate -->
     <g transform="translate(68.101562 38.916562) scale(0.1 -0.1)">
      <defs>
       <path id="DejaVuSans-53" d="M 3425 4513 
L 3425 3897 
Q 3066 4069 2747 4153 
Q 2428 4238 2131 4238 
Q 1616 4238 1336 4038 
Q 1056 3838 1056 3469 
Q 1056 3159 1242 3001 
Q 1428 2844 1947 2747 
L 2328 2669 
Q 3034 2534 3370 2195 
Q 3706 1856 3706 1288 
Q 3706 609 3251 259 
Q 2797 -91 1919 -91 
Q 1588 -91 1214 -16 
Q 841 59 441 206 
L 441 856 
Q 825 641 1194 531 
Q 1563 422 1919 422 
Q 2459 422 2753 634 
Q 3047 847 3047 1241 
Q 3047 1584 2836 1778 
Q 2625 1972 2144 2069 
L 1759 2144 
Q 1053 2284 737 2584 
Q 422 2884 422 3419 
Q 422 4038 858 4394 
Q 1294 4750 2059 4750 
Q 2388 4750 2728 4690 
Q 3069 4631 3425 4513 
z
" transform="scale(0.015625)"/>
      </defs>
      <use xlink:href="#DejaVuSans-53"/>
      <use xlink:href="#DejaVuSans-75" transform="translate(63.476562 0)"/>
      <use xlink:href="#DejaVuSans-62" transform="translate(126.855469 0)"/>
      <use xlink:href="#DejaVuSans-73" transform="translate(190.332031 0)"/>
      <use xlink:href="#DejaVuSans-74" transform="translate(242.431641 0)"/>
      <use xlink:href="#DejaVuSans-72" transform="translate(281.640625 0)"/>
      <use xlink:href="#DejaVuSans-61" transform="translate(322.753906 0)"/>
      <use xlink:href="#DejaVuSans-74" transform="translate(384.033203 0)"/>
      <use xlink:href="#DejaVuSans-65" transform="translate(423.242188 0)"/>
     </g>
    </g>
    <g id="patch_42">
     <path d="M 55.965625 53.594687 
L 75.965625 53.594687 
L 75.965625 46.594687 
L 55.965625 46.594687 
z
" style="fill: #101070; stroke: #262626; stroke-linejoin: miter"/>
    </g>
    <g id="text_27">
     <!-- Fucoidan -->
     <g transform="translate(83.965625 53.594687) scale(0.1 -0.1)">
      <use xlink:href="#DejaVuSans-46"/>
      <use xlink:href="#DejaVuSans-75" transform="translate(52.019531 0)"/>
      <use xlink:href="#DejaVuSans-63" transform="translate(115.398438 0)"/>
      <use xlink:href="#DejaVuSans-6f" transform="translate(170.378906 0)"/>
      <use xlink:href="#DejaVuSans-69" transform="translate(231.560547 0)"/>
      <use xlink:href="#DejaVuSans-64" transform="translate(259.34375 0)"/>
      <use xlink:href="#DejaVuSans-61" transform="translate(322.820312 0)"/>
      <use xlink:href="#DejaVuSans-6e" transform="translate(384.099609 0)"/>
     </g>
    </g>
    <g id="patch_43">
     <path d="M 55.965625 68.272812 
L 75.965625 68.272812 
L 75.965625 61.272812 
L 55.965625 61.272812 
z
" style="fill: #df9c20; stroke: #262626; stroke-linejoin: miter"/>
    </g>
    <g id="text_28">
     <!-- Alginate -->
     <g transform="translate(83.965625 68.272812) scale(0.1 -0.1)">
      <use xlink:href="#DejaVuSans-41"/>
      <use xlink:href="#DejaVuSans-6c" transform="translate(68.408203 0)"/>
      <use xlink:href="#DejaVuSans-67" transform="translate(96.191406 0)"/>
      <use xlink:href="#DejaVuSans-69" transform="translate(159.667969 0)"/>
      <use xlink:href="#DejaVuSans-6e" transform="translate(187.451172 0)"/>
      <use xlink:href="#DejaVuSans-61" transform="translate(250.830078 0)"/>
      <use xlink:href="#DejaVuSans-74" transform="translate(312.109375 0)"/>
      <use xlink:href="#DejaVuSans-65" transform="translate(351.318359 0)"/>
     </g>
    </g>
   </g>
  </g>
 </g>
 <defs>
  <clipPath id="p695e48e317">
   <rect x="46.965625" y="22.318125" width="802.33" height="651.16"/>
  </clipPath>
 </defs>
</svg>
